<?xml version="1.0" encoding="UTF-8"?>
<svg xmlns="http://www.w3.org/2000/svg" xmlns:xlink="http://www.w3.org/1999/xlink" width="600" height="450" viewBox="0 0 600 450">
<defs>
<g>
<g id="glyph-0-0-b90de5dd">
<path d="M 2.703125 0 C 2.703125 0 1.40625 0 1.40625 0 C 1.40625 0 1.40625 -10.203125 1.40625 -10.203125 C 1.40625 -10.203125 2.703125 -10.203125 2.703125 -10.203125 C 2.703125 -10.203125 2.703125 0 2.703125 0 Z M 2.703125 0 "/>
</g>
<g id="glyph-0-1-b90de5dd">
<path d="M 3.5625 0 C 3.15625 0.0625 2.890625 0.09375 2.609375 0.09375 C 1.6875 0.09375 1.1875 -0.328125 1.1875 -1.0625 C 1.1875 -1.0625 1.1875 -6.390625 1.1875 -6.390625 C 1.1875 -6.390625 0.203125 -6.390625 0.203125 -6.390625 C 0.203125 -6.390625 0.203125 -7.34375 0.203125 -7.34375 C 0.203125 -7.34375 1.1875 -7.34375 1.1875 -7.34375 C 1.1875 -7.34375 1.1875 -9.359375 1.1875 -9.359375 C 1.1875 -9.359375 2.359375 -9.359375 2.359375 -9.359375 C 2.359375 -9.359375 2.359375 -7.34375 2.359375 -7.34375 C 2.359375 -7.34375 3.5625 -7.34375 3.5625 -7.34375 C 3.5625 -7.34375 3.5625 -6.390625 3.5625 -6.390625 C 3.5625 -6.390625 2.359375 -6.390625 2.359375 -6.390625 C 2.359375 -6.390625 2.359375 -1.578125 2.359375 -1.578125 C 2.359375 -1.0625 2.484375 -0.921875 3 -0.921875 C 3.21875 -0.921875 3.40625 -0.9375 3.5625 -0.984375 C 3.5625 -0.984375 3.5625 0 3.5625 0 Z M 3.5625 0 "/>
</g>
<g id="glyph-0-2-b90de5dd">
<path d="M 7.1875 -3.328125 C 7.1875 -3.328125 1.78125 -3.328125 1.78125 -3.328125 C 1.8125 -1.65625 2.71875 -0.875 3.9375 -0.875 C 4.875 -0.875 5.53125 -1.265625 5.859375 -2.21875 C 5.859375 -2.21875 7.03125 -2.21875 7.03125 -2.21875 C 6.734375 -0.734375 5.578125 0.203125 3.890625 0.203125 C 1.828125 0.203125 0.5625 -1.21875 0.5625 -3.625 C 0.5625 -6.03125 1.875 -7.546875 3.921875 -7.546875 C 5.296875 -7.546875 6.40625 -6.8125 6.890625 -5.609375 C 7.09375 -5.0625 7.1875 -4.390625 7.1875 -3.328125 Z M 5.9375 -4.375 C 5.9375 -5.515625 5.046875 -6.46875 3.90625 -6.46875 C 2.734375 -6.46875 1.90625 -5.59375 1.8125 -4.28125 C 1.8125 -4.28125 5.921875 -4.28125 5.921875 -4.28125 C 5.9375 -4.3125 5.9375 -4.375 5.9375 -4.375 Z M 5.9375 -4.375 "/>
</g>
<g id="glyph-0-3-b90de5dd">
<path d="M 4.5 -6.3125 C 2.6875 -6.28125 2.140625 -5.453125 2.140625 -3.8125 C 2.140625 -3.8125 2.140625 0 2.140625 0 C 2.140625 0 0.984375 0 0.984375 0 C 0.984375 0 0.984375 -7.34375 0.984375 -7.34375 C 0.984375 -7.34375 2.046875 -7.34375 2.046875 -7.34375 C 2.046875 -7.34375 2.046875 -6 2.046875 -6 C 2.71875 -7.09375 3.296875 -7.546875 4.046875 -7.546875 C 4.203125 -7.546875 4.296875 -7.53125 4.5 -7.5 C 4.5 -7.5 4.5 -6.3125 4.5 -6.3125 Z M 4.5 -6.3125 "/>
</g>
<g id="glyph-0-4-b90de5dd">
<path d="M 7.484375 -0.03125 C 7.109375 0.0625 6.9375 0.09375 6.6875 0.09375 C 6.125 0.09375 5.609375 -0.3125 5.484375 -0.875 C 4.84375 -0.1875 3.9375 0.203125 3 0.203125 C 1.515625 0.203125 0.59375 -0.578125 0.59375 -1.90625 C 0.59375 -2.796875 1.015625 -3.453125 1.875 -3.8125 C 2.328125 -3.984375 2.578125 -4.046875 4.234375 -4.25 C 5.15625 -4.375 5.453125 -4.578125 5.453125 -5.0625 C 5.453125 -5.0625 5.453125 -5.375 5.453125 -5.375 C 5.453125 -6.078125 4.859375 -6.46875 3.8125 -6.46875 C 2.71875 -6.46875 2.1875 -6.0625 2.09375 -5.171875 C 2.09375 -5.171875 0.90625 -5.171875 0.90625 -5.171875 C 0.984375 -6.859375 2.078125 -7.546875 3.84375 -7.546875 C 5.65625 -7.546875 6.609375 -6.84375 6.609375 -5.546875 C 6.609375 -5.546875 6.609375 -1.453125 6.609375 -1.453125 C 6.609375 -1.09375 6.828125 -0.875 7.234375 -0.875 C 7.3125 -0.875 7.359375 -0.875 7.484375 -0.90625 C 7.484375 -0.90625 7.484375 -0.03125 7.484375 -0.03125 Z M 5.453125 -2.53125 C 5.453125 -2.53125 5.453125 -3.625 5.453125 -3.625 C 5.046875 -3.4375 4.796875 -3.390625 3.5625 -3.21875 C 2.328125 -3.03125 1.8125 -2.703125 1.8125 -1.9375 C 1.8125 -1.140625 2.34375 -0.8125 3.25 -0.8125 C 4.375 -0.8125 5.453125 -1.484375 5.453125 -2.53125 Z M 5.453125 -2.53125 "/>
</g>
<g id="glyph-0-5-b90de5dd">
<path d="M 2.140625 0 C 2.140625 0 0.984375 0 0.984375 0 C 0.984375 0 0.984375 -7.34375 0.984375 -7.34375 C 0.984375 -7.34375 2.140625 -7.34375 2.140625 -7.34375 C 2.140625 -7.34375 2.140625 0 2.140625 0 Z M 2.296875 -8.4375 C 2.296875 -8.4375 0.84375 -8.4375 0.84375 -8.4375 C 0.84375 -8.4375 0.84375 -9.890625 0.84375 -9.890625 C 0.84375 -9.890625 2.296875 -9.890625 2.296875 -9.890625 C 2.296875 -9.890625 2.296875 -8.4375 2.296875 -8.4375 Z M 2.296875 -8.4375 "/>
</g>
<g id="glyph-0-6-b90de5dd">
<path d="M 7.140625 -3.609375 C 7.140625 -1.203125 5.875 0.203125 3.828125 0.203125 C 1.734375 0.203125 0.5 -1.203125 0.5 -3.671875 C 0.5 -6.125 1.75 -7.546875 3.8125 -7.546875 C 5.921875 -7.546875 7.140625 -6.140625 7.140625 -3.609375 Z M 5.921875 -3.625 C 5.921875 -5.453125 5.140625 -6.46875 3.828125 -6.46875 C 2.515625 -6.46875 1.71875 -5.4375 1.71875 -3.671875 C 1.71875 -1.890625 2.515625 -0.875 3.828125 -0.875 C 5.109375 -0.875 5.921875 -1.90625 5.921875 -3.625 Z M 5.921875 -3.625 "/>
</g>
<g id="glyph-0-7-b90de5dd">
<path d="M 6.8125 0 C 6.8125 0 5.65625 0 5.65625 0 C 5.65625 0 5.65625 -5.078125 5.65625 -5.078125 C 5.65625 -5.96875 5.0625 -6.53125 4.140625 -6.53125 C 2.953125 -6.53125 2.140625 -5.546875 2.140625 -4.046875 C 2.140625 -4.046875 2.140625 0 2.140625 0 C 2.140625 0 0.984375 0 0.984375 0 C 0.984375 0 0.984375 -7.34375 0.984375 -7.34375 C 0.984375 -7.34375 2.0625 -7.34375 2.0625 -7.34375 C 2.0625 -7.34375 2.0625 -6.109375 2.0625 -6.109375 C 2.703125 -7.125 3.40625 -7.546875 4.5 -7.546875 C 5.90625 -7.546875 6.8125 -6.765625 6.8125 -5.546875 C 6.8125 -5.546875 6.8125 0 6.8125 0 Z M 6.8125 0 "/>
</g>
<g id="glyph-0-8-b90de5dd">
<path d="M 6.421875 -2.0625 C 6.421875 -0.640625 5.25 0.203125 3.40625 0.203125 C 1.484375 0.203125 0.53125 -0.546875 0.46875 -2.234375 C 0.46875 -2.234375 1.703125 -2.234375 1.703125 -2.234375 C 1.859375 -1.125 2.453125 -0.875 3.5 -0.875 C 4.515625 -0.875 5.203125 -1.28125 5.203125 -1.953125 C 5.203125 -2.484375 4.890625 -2.734375 4.078125 -2.921875 C 4.078125 -2.921875 2.984375 -3.1875 2.984375 -3.1875 C 1.25 -3.609375 0.65625 -4.15625 0.65625 -5.3125 C 0.65625 -6.65625 1.765625 -7.546875 3.46875 -7.546875 C 5.171875 -7.546875 6.125 -6.734375 6.125 -5.296875 C 6.125 -5.296875 4.90625 -5.296875 4.90625 -5.296875 C 4.875 -6.0625 4.375 -6.46875 3.4375 -6.46875 C 2.484375 -6.46875 1.875 -6.03125 1.875 -5.359375 C 1.875 -4.84375 2.28125 -4.53125 3.234375 -4.3125 C 3.234375 -4.3125 4.359375 -4.046875 4.359375 -4.046875 C 5.8125 -3.703125 6.421875 -3.15625 6.421875 -2.0625 Z M 6.421875 -2.0625 "/>
</g>
<g id="glyph-0-9-b90de5dd">
<path d="M 7.09375 -4.78125 C 7.09375 -1.515625 5.953125 0.203125 3.84375 0.203125 C 1.71875 0.203125 0.609375 -1.515625 0.609375 -4.859375 C 0.609375 -8.1875 1.703125 -9.921875 3.84375 -9.921875 C 6 -9.921875 7.09375 -8.21875 7.09375 -4.78125 Z M 5.84375 -4.890625 C 5.84375 -7.546875 5.1875 -8.828125 3.84375 -8.828125 C 2.515625 -8.828125 1.859375 -7.5625 1.859375 -4.84375 C 1.859375 -2.125 2.515625 -0.8125 3.828125 -0.8125 C 5.1875 -0.8125 5.84375 -2.078125 5.84375 -4.890625 Z M 5.84375 -4.890625 "/>
</g>
<g id="glyph-0-10-b90de5dd">
<path d="M 4.859375 0 C 4.859375 0 3.625 0 3.625 0 C 3.625 0 3.625 -7.0625 3.625 -7.0625 C 3.625 -7.0625 1.421875 -7.0625 1.421875 -7.0625 C 1.421875 -7.0625 1.421875 -7.953125 1.421875 -7.953125 C 3.328125 -8.1875 3.609375 -8.40625 4.046875 -9.921875 C 4.046875 -9.921875 4.859375 -9.921875 4.859375 -9.921875 C 4.859375 -9.921875 4.859375 0 4.859375 0 Z M 4.859375 0 "/>
</g>
<g id="glyph-0-11-b90de5dd">
<path d="M 7.15625 -7.015625 C 7.15625 -5.796875 6.4375 -4.765625 5.046875 -4.015625 C 5.046875 -4.015625 3.65625 -3.265625 3.65625 -3.265625 C 2.4375 -2.546875 1.984375 -2.03125 1.859375 -1.21875 C 1.859375 -1.21875 7.078125 -1.21875 7.078125 -1.21875 C 7.078125 -1.21875 7.078125 0 7.078125 0 C 7.078125 0 0.46875 0 0.46875 0 C 0.59375 -2.1875 1.1875 -3.125 3.265625 -4.296875 C 3.265625 -4.296875 4.546875 -5.03125 4.546875 -5.03125 C 5.4375 -5.53125 5.890625 -6.203125 5.890625 -6.984375 C 5.890625 -8.046875 5.046875 -8.84375 3.9375 -8.84375 C 2.71875 -8.84375 2.03125 -8.140625 1.9375 -6.484375 C 1.9375 -6.484375 0.703125 -6.484375 0.703125 -6.484375 C 0.765625 -8.890625 1.953125 -9.921875 3.96875 -9.921875 C 5.859375 -9.921875 7.15625 -8.6875 7.15625 -7.015625 Z M 7.15625 -7.015625 "/>
</g>
<g id="glyph-0-12-b90de5dd">
<path d="M 8.109375 -9.0625 C 8.109375 -9.0625 2.5625 -9.0625 2.5625 -9.0625 C 2.5625 -9.0625 2.5625 -5.796875 2.5625 -5.796875 C 2.5625 -5.796875 7.4375 -5.796875 7.4375 -5.796875 C 7.4375 -5.796875 7.4375 -4.640625 7.4375 -4.640625 C 7.4375 -4.640625 2.5625 -4.640625 2.5625 -4.640625 C 2.5625 -4.640625 2.5625 0 2.5625 0 C 2.5625 0 1.265625 0 1.265625 0 C 1.265625 0 1.265625 -10.203125 1.265625 -10.203125 C 1.265625 -10.203125 8.109375 -10.203125 8.109375 -10.203125 C 8.109375 -10.203125 8.109375 -9.0625 8.109375 -9.0625 Z M 8.109375 -9.0625 "/>
</g>
<g id="glyph-0-13-b90de5dd">
<path d="M 2.109375 0 C 2.109375 0 0.953125 0 0.953125 0 C 0.953125 0 0.953125 -10.203125 0.953125 -10.203125 C 0.953125 -10.203125 2.109375 -10.203125 2.109375 -10.203125 C 2.109375 -10.203125 2.109375 0 2.109375 0 Z M 2.109375 0 "/>
</g>
<g id="glyph-0-14-b90de5dd">
</g>
<g id="glyph-0-15-b90de5dd">
<path d="M 7.46875 0 C 7.46875 0 1.125 0 1.125 0 C 1.125 0 1.125 -10.203125 1.125 -10.203125 C 1.125 -10.203125 2.421875 -10.203125 2.421875 -10.203125 C 2.421875 -10.203125 2.421875 -1.140625 2.421875 -1.140625 C 2.421875 -1.140625 7.46875 -1.140625 7.46875 -1.140625 C 7.46875 -1.140625 7.46875 0 7.46875 0 Z M 7.46875 0 "/>
</g>
<g id="glyph-0-16-b90de5dd">
<path d="M 7.21875 -4.296875 C 7.21875 -4.296875 0.953125 -4.296875 0.953125 -4.296875 C 0.953125 -4.296875 0.953125 -5.25 0.953125 -5.25 C 0.953125 -5.25 7.21875 -5.25 7.21875 -5.25 C 7.21875 -5.25 7.21875 -4.296875 7.21875 -4.296875 Z M 7.21875 -1.75 C 7.21875 -1.75 0.953125 -1.75 0.953125 -1.75 C 0.953125 -1.75 0.953125 -2.703125 0.953125 -2.703125 C 0.953125 -2.703125 7.21875 -2.703125 7.21875 -2.703125 C 7.21875 -2.703125 7.21875 -1.75 7.21875 -1.75 Z M 7.21875 -1.75 "/>
</g>
<g id="glyph-0-17-b90de5dd">
<path d="M 2.671875 0 C 2.671875 0 1.21875 0 1.21875 0 C 1.21875 0 1.21875 -1.453125 1.21875 -1.453125 C 1.21875 -1.453125 2.671875 -1.453125 2.671875 -1.453125 C 2.671875 -1.453125 2.671875 0 2.671875 0 Z M 2.671875 0 "/>
</g>
<g id="glyph-0-18-b90de5dd">
<path d="M 7.1875 -3.296875 C 7.1875 -1.1875 5.78125 0.203125 3.78125 0.203125 C 2.015625 0.203125 0.890625 -0.578125 0.484375 -2.546875 C 0.484375 -2.546875 1.71875 -2.546875 1.71875 -2.546875 C 2.015625 -1.421875 2.671875 -0.875 3.75 -0.875 C 5.09375 -0.875 5.921875 -1.6875 5.921875 -3.125 C 5.921875 -4.59375 5.078125 -5.453125 3.75 -5.453125 C 2.984375 -5.453125 2.5 -5.203125 1.9375 -4.515625 C 1.9375 -4.515625 0.796875 -4.515625 0.796875 -4.515625 C 0.796875 -4.515625 1.546875 -9.71875 1.546875 -9.71875 C 1.546875 -9.71875 6.65625 -9.71875 6.65625 -9.71875 C 6.65625 -9.71875 6.65625 -8.5 6.65625 -8.5 C 6.65625 -8.5 2.53125 -8.5 2.53125 -8.5 C 2.53125 -8.5 2.140625 -5.9375 2.140625 -5.9375 C 2.71875 -6.359375 3.28125 -6.53125 3.96875 -6.53125 C 5.875 -6.53125 7.1875 -5.25 7.1875 -3.296875 Z M 7.1875 -3.296875 "/>
</g>
<g id="glyph-1-0-b90de5dd">
<path d="M 0 -7.46875 C 0 -7.46875 0 -1.125 0 -1.125 C 0 -1.125 -10.203125 -1.125 -10.203125 -1.125 C -10.203125 -1.125 -10.203125 -2.421875 -10.203125 -2.421875 C -10.203125 -2.421875 -1.140625 -2.421875 -1.140625 -2.421875 C -1.140625 -2.421875 -1.140625 -7.46875 -1.140625 -7.46875 C -1.140625 -7.46875 0 -7.46875 0 -7.46875 Z M 0 -7.46875 "/>
</g>
<g id="glyph-1-1-b90de5dd">
<path d="M -2.0625 -6.421875 C -0.640625 -6.421875 0.203125 -5.25 0.203125 -3.40625 C 0.203125 -1.484375 -0.546875 -0.53125 -2.234375 -0.46875 C -2.234375 -0.46875 -2.234375 -1.703125 -2.234375 -1.703125 C -1.125 -1.859375 -0.875 -2.453125 -0.875 -3.5 C -0.875 -4.515625 -1.28125 -5.203125 -1.953125 -5.203125 C -2.484375 -5.203125 -2.734375 -4.890625 -2.921875 -4.078125 C -2.921875 -4.078125 -3.1875 -2.984375 -3.1875 -2.984375 C -3.609375 -1.25 -4.15625 -0.65625 -5.3125 -0.65625 C -6.65625 -0.65625 -7.546875 -1.765625 -7.546875 -3.46875 C -7.546875 -5.171875 -6.734375 -6.125 -5.296875 -6.125 C -5.296875 -6.125 -5.296875 -4.90625 -5.296875 -4.90625 C -6.0625 -4.875 -6.46875 -4.375 -6.46875 -3.4375 C -6.46875 -2.484375 -6.03125 -1.875 -5.359375 -1.875 C -4.84375 -1.875 -4.53125 -2.28125 -4.3125 -3.234375 C -4.3125 -3.234375 -4.046875 -4.359375 -4.046875 -4.359375 C -3.703125 -5.8125 -3.15625 -6.421875 -2.0625 -6.421875 Z M -2.0625 -6.421875 "/>
</g>
<g id="glyph-2-0-b90de5dd">
<path d="M -3.609375 -7.140625 C -1.203125 -7.140625 0.203125 -5.875 0.203125 -3.828125 C 0.203125 -1.734375 -1.203125 -0.5 -3.671875 -0.5 C -6.125 -0.5 -7.546875 -1.75 -7.546875 -3.8125 C -7.546875 -5.921875 -6.140625 -7.140625 -3.609375 -7.140625 Z M -3.625 -5.921875 C -5.453125 -5.921875 -6.46875 -5.140625 -6.46875 -3.828125 C -6.46875 -2.515625 -5.4375 -1.71875 -3.671875 -1.71875 C -1.890625 -1.71875 -0.875 -2.515625 -0.875 -3.828125 C -0.875 -5.109375 -1.90625 -5.921875 -3.625 -5.921875 Z M -3.625 -5.921875 "/>
</g>
<g id="glyph-3-0-b90de5dd">
<path d="M -2.0625 -6.421875 C -0.640625 -6.421875 0.203125 -5.25 0.203125 -3.40625 C 0.203125 -1.484375 -0.546875 -0.53125 -2.234375 -0.46875 C -2.234375 -0.46875 -2.234375 -1.703125 -2.234375 -1.703125 C -1.125 -1.859375 -0.875 -2.453125 -0.875 -3.5 C -0.875 -4.515625 -1.28125 -5.203125 -1.953125 -5.203125 C -2.484375 -5.203125 -2.734375 -4.890625 -2.921875 -4.078125 C -2.921875 -4.078125 -3.1875 -2.984375 -3.1875 -2.984375 C -3.609375 -1.25 -4.15625 -0.65625 -5.3125 -0.65625 C -6.65625 -0.65625 -7.546875 -1.765625 -7.546875 -3.46875 C -7.546875 -5.171875 -6.734375 -6.125 -5.296875 -6.125 C -5.296875 -6.125 -5.296875 -4.90625 -5.296875 -4.90625 C -6.0625 -4.875 -6.46875 -4.375 -6.46875 -3.4375 C -6.46875 -2.484375 -6.03125 -1.875 -5.359375 -1.875 C -4.84375 -1.875 -4.53125 -2.28125 -4.3125 -3.234375 C -4.3125 -3.234375 -4.046875 -4.359375 -4.046875 -4.359375 C -3.703125 -5.8125 -3.15625 -6.421875 -2.0625 -6.421875 Z M -2.0625 -6.421875 "/>
</g>
<g id="glyph-4-0-b90de5dd">
<path d="M 4.765625 -2 C 4.765625 -2 0.625 -2 0.625 -2 C 0.625 -2 0.625 -2.625 0.625 -2.625 C 0.625 -2.625 4.765625 -2.625 4.765625 -2.625 C 4.765625 -2.625 4.765625 -2 4.765625 -2 Z M 4.765625 -2 "/>
</g>
<g id="glyph-5-0-b90de5dd">
<path d="M 4.671875 -1.90625 C 4.671875 -0.671875 3.796875 0.140625 2.453125 0.140625 C 1.125 0.140625 0.390625 -0.515625 0.296875 -1.96875 C 0.296875 -1.96875 1.109375 -1.96875 1.109375 -1.96875 C 1.15625 -1.03125 1.59375 -0.578125 2.484375 -0.578125 C 3.328125 -0.578125 3.84375 -1.078125 3.84375 -1.890625 C 3.84375 -2.625 3.375 -3.046875 2.484375 -3.046875 C 2.484375 -3.046875 2.046875 -3.046875 2.046875 -3.046875 C 2.046875 -3.046875 2.046875 -3.734375 2.046875 -3.734375 C 3.34375 -3.734375 3.640625 -4.015625 3.640625 -4.71875 C 3.640625 -5.40625 3.21875 -5.84375 2.5 -5.84375 C 1.65625 -5.84375 1.265625 -5.40625 1.25 -4.4375 C 1.25 -4.4375 0.4375 -4.4375 0.4375 -4.4375 C 0.46875 -5.828125 1.15625 -6.546875 2.484375 -6.546875 C 3.734375 -6.546875 4.484375 -5.875 4.484375 -4.75 C 4.484375 -4.09375 4.171875 -3.671875 3.5625 -3.421875 C 4.34375 -3.15625 4.671875 -2.703125 4.671875 -1.90625 Z M 4.671875 -1.90625 "/>
</g>
<g id="glyph-5-1-b90de5dd">
<path d="M 4.71875 -4.625 C 4.71875 -3.828125 4.25 -3.140625 3.328125 -2.65625 C 3.328125 -2.65625 2.40625 -2.15625 2.40625 -2.15625 C 1.609375 -1.6875 1.3125 -1.34375 1.234375 -0.796875 C 1.234375 -0.796875 4.671875 -0.796875 4.671875 -0.796875 C 4.671875 -0.796875 4.671875 0 4.671875 0 C 4.671875 0 0.3125 0 0.3125 0 C 0.390625 -1.4375 0.78125 -2.0625 2.15625 -2.828125 C 2.15625 -2.828125 3 -3.3125 3 -3.3125 C 3.578125 -3.640625 3.890625 -4.09375 3.890625 -4.609375 C 3.890625 -5.3125 3.328125 -5.84375 2.59375 -5.84375 C 1.796875 -5.84375 1.34375 -5.375 1.28125 -4.28125 C 1.28125 -4.28125 0.46875 -4.28125 0.46875 -4.28125 C 0.515625 -5.859375 1.28125 -6.546875 2.625 -6.546875 C 3.859375 -6.546875 4.71875 -5.734375 4.71875 -4.625 Z M 4.71875 -4.625 "/>
</g>
<g id="glyph-5-2-b90de5dd">
<path d="M 3.203125 0 C 3.203125 0 2.390625 0 2.390625 0 C 2.390625 0 2.390625 -4.65625 2.390625 -4.65625 C 2.390625 -4.65625 0.9375 -4.65625 0.9375 -4.65625 C 0.9375 -4.65625 0.9375 -5.25 0.9375 -5.25 C 2.203125 -5.40625 2.375 -5.546875 2.671875 -6.546875 C 2.671875 -6.546875 3.203125 -6.546875 3.203125 -6.546875 C 3.203125 -6.546875 3.203125 0 3.203125 0 Z M 3.203125 0 "/>
</g>
<g id="glyph-6-0-b90de5dd">
<path d="M 4.6875 -3.15625 C 4.6875 -1 3.921875 0.140625 2.546875 0.140625 C 1.140625 0.140625 0.390625 -1 0.390625 -3.203125 C 0.390625 -5.40625 1.125 -6.546875 2.546875 -6.546875 C 3.96875 -6.546875 4.6875 -5.421875 4.6875 -3.15625 Z M 3.84375 -3.21875 C 3.84375 -4.984375 3.421875 -5.828125 2.546875 -5.828125 C 1.65625 -5.828125 1.234375 -4.984375 1.234375 -3.1875 C 1.234375 -1.40625 1.65625 -0.53125 2.515625 -0.53125 C 3.421875 -0.53125 3.84375 -1.359375 3.84375 -3.21875 Z M 3.84375 -3.21875 "/>
</g>
</g>
<clipPath id="clip-0-b90de5dd">
<path clip-rule="nonzero" d="M 91 16 L 152 16 L 152 23 L 91 23 Z M 91 16 "/>
</clipPath>
<clipPath id="clip-1-b90de5dd">
<path clip-rule="nonzero" d="M 143 16 L 204 16 L 204 29 L 143 29 Z M 143 16 "/>
</clipPath>
<clipPath id="clip-2-b90de5dd">
<path clip-rule="nonzero" d="M 195 16 L 256 16 L 256 50 L 195 50 Z M 195 16 "/>
</clipPath>
<clipPath id="clip-3-b90de5dd">
<path clip-rule="nonzero" d="M 246 16 L 359 16 L 359 60 L 246 60 Z M 246 16 "/>
</clipPath>
<clipPath id="clip-4-b90de5dd">
<path clip-rule="nonzero" d="M 350 16 L 462 16 L 462 59 L 350 59 Z M 350 16 "/>
</clipPath>
<clipPath id="clip-5-b90de5dd">
<path clip-rule="nonzero" d="M 453 16 L 566 16 L 566 60 L 453 60 Z M 453 16 "/>
</clipPath>
<clipPath id="clip-6-b90de5dd">
<path clip-rule="nonzero" d="M 73 50 L 584 50 L 584 53 L 73 53 Z M 73 50 "/>
</clipPath>
</defs>
<rect x="-60" y="-45" width="720" height="540" fill="rgb(100%, 100%, 100%)" fill-opacity="1"/>
<path fill-rule="nonzero" fill="rgb(100%, 100%, 100%)" fill-opacity="1" d="M 73 391 L 584 391 L 584 16 L 73 16 Z M 73 391 "/>
<path fill="none" stroke-width="1" stroke-linecap="butt" stroke-linejoin="miter" stroke="rgb(0%, 0%, 0%)" stroke-opacity="0.12" stroke-miterlimit="1.154701" d="M 96.054688 391 L 96.054688 16 "/>
<path fill="none" stroke-width="1" stroke-linecap="butt" stroke-linejoin="miter" stroke="rgb(0%, 0%, 0%)" stroke-opacity="0.12" stroke-miterlimit="1.154701" d="M 268.171875 391 L 268.171875 16 "/>
<path fill="none" stroke-width="1" stroke-linecap="butt" stroke-linejoin="miter" stroke="rgb(0%, 0%, 0%)" stroke-opacity="0.12" stroke-miterlimit="1.154701" d="M 440.289062 391 L 440.289062 16 "/>
<path fill="none" stroke-width="1" stroke-linecap="butt" stroke-linejoin="miter" stroke="rgb(0%, 0%, 0%)" stroke-opacity="0.12" stroke-miterlimit="1.154701" d="M 73 391 L 584 391 "/>
<path fill="none" stroke-width="1" stroke-linecap="butt" stroke-linejoin="miter" stroke="rgb(0%, 0%, 0%)" stroke-opacity="0.12" stroke-miterlimit="1.154701" d="M 73 266 L 584 266 "/>
<path fill="none" stroke-width="1" stroke-linecap="butt" stroke-linejoin="miter" stroke="rgb(0%, 0%, 0%)" stroke-opacity="0.12" stroke-miterlimit="1.154701" d="M 73 141 L 584 141 "/>
<path fill="none" stroke-width="1" stroke-linecap="butt" stroke-linejoin="miter" stroke="rgb(0%, 0%, 0%)" stroke-opacity="0.12" stroke-miterlimit="1.154701" d="M 73 16 L 584 16 "/>
<g fill="rgb(0%, 0%, 0%)" fill-opacity="1">
<use xlink:href="#glyph-0-0-b90de5dd" x="299.709007" y="431.567999"/>
<use xlink:href="#glyph-0-1-b90de5dd" x="303.601007" y="431.567999"/>
<use xlink:href="#glyph-0-2-b90de5dd" x="307.493007" y="431.567999"/>
<use xlink:href="#glyph-0-3-b90de5dd" x="315.277007" y="431.567999"/>
<use xlink:href="#glyph-0-4-b90de5dd" x="319.939007" y="431.567999"/>
<use xlink:href="#glyph-0-1-b90de5dd" x="327.723008" y="431.567999"/>
<use xlink:href="#glyph-0-5-b90de5dd" x="331.615008" y="431.567999"/>
<use xlink:href="#glyph-0-6-b90de5dd" x="334.723008" y="431.567999"/>
<use xlink:href="#glyph-0-7-b90de5dd" x="342.507008" y="431.567999"/>
<use xlink:href="#glyph-0-8-b90de5dd" x="350.291009" y="431.567999"/>
</g>
<g fill="rgb(0%, 0%, 0%)" fill-opacity="1">
<use xlink:href="#glyph-0-9-b90de5dd" x="92.163155" y="412.257999"/>
</g>
<g fill="rgb(0%, 0%, 0%)" fill-opacity="1">
<use xlink:href="#glyph-0-10-b90de5dd" x="252.604766" y="412.257999"/>
<use xlink:href="#glyph-0-9-b90de5dd" x="260.388766" y="412.257999"/>
<use xlink:href="#glyph-0-9-b90de5dd" x="268.172767" y="412.257999"/>
<use xlink:href="#glyph-0-9-b90de5dd" x="275.956766" y="412.257999"/>
</g>
<g fill="rgb(0%, 0%, 0%)" fill-opacity="1">
<use xlink:href="#glyph-0-11-b90de5dd" x="424.722416" y="412.257999"/>
<use xlink:href="#glyph-0-9-b90de5dd" x="432.506416" y="412.257999"/>
<use xlink:href="#glyph-0-9-b90de5dd" x="440.290416" y="412.257999"/>
<use xlink:href="#glyph-0-9-b90de5dd" x="448.074416" y="412.257999"/>
</g>
<g fill="rgb(0%, 0%, 0%)" fill-opacity="1">
<use xlink:href="#glyph-1-0-b90de5dd" x="27.922399" y="218.283994"/>
</g>
<g fill="rgb(0%, 0%, 0%)" fill-opacity="1">
<use xlink:href="#glyph-2-0-b90de5dd" x="27.9224" y="210.499994"/>
</g>
<g fill="rgb(0%, 0%, 0%)" fill-opacity="1">
<use xlink:href="#glyph-3-0-b90de5dd" x="27.9224" y="202.715994"/>
</g>
<g fill="rgb(0%, 0%, 0%)" fill-opacity="1">
<use xlink:href="#glyph-1-1-b90de5dd" x="27.922401" y="195.715994"/>
</g>
<g fill="rgb(0%, 0%, 0%)" fill-opacity="1">
<use xlink:href="#glyph-0-10-b90de5dd" x="35.9744" y="396.649139"/>
<use xlink:href="#glyph-0-9-b90de5dd" x="43.758401" y="396.649139"/>
</g>
<g fill="rgb(0%, 0%, 0%)" fill-opacity="1">
<use xlink:href="#glyph-4-0-b90de5dd" x="52.466401" y="391.049139"/>
</g>
<g fill="rgb(0%, 0%, 0%)" fill-opacity="1">
<use xlink:href="#glyph-5-0-b90de5dd" x="57.862562" y="391.049139"/>
</g>
<g fill="rgb(0%, 0%, 0%)" fill-opacity="1">
<use xlink:href="#glyph-0-10-b90de5dd" x="35.9744" y="271.649136"/>
<use xlink:href="#glyph-0-9-b90de5dd" x="43.758401" y="271.649136"/>
</g>
<g fill="rgb(0%, 0%, 0%)" fill-opacity="1">
<use xlink:href="#glyph-4-0-b90de5dd" x="52.466401" y="266.049136"/>
</g>
<g fill="rgb(0%, 0%, 0%)" fill-opacity="1">
<use xlink:href="#glyph-5-1-b90de5dd" x="57.862562" y="266.049136"/>
</g>
<g fill="rgb(0%, 0%, 0%)" fill-opacity="1">
<use xlink:href="#glyph-0-10-b90de5dd" x="35.9744" y="146.649133"/>
<use xlink:href="#glyph-0-9-b90de5dd" x="43.758401" y="146.649133"/>
</g>
<g fill="rgb(0%, 0%, 0%)" fill-opacity="1">
<use xlink:href="#glyph-4-0-b90de5dd" x="52.466401" y="141.049133"/>
</g>
<g fill="rgb(0%, 0%, 0%)" fill-opacity="1">
<use xlink:href="#glyph-5-2-b90de5dd" x="57.862562" y="141.049133"/>
</g>
<g fill="rgb(0%, 0%, 0%)" fill-opacity="1">
<use xlink:href="#glyph-0-10-b90de5dd" x="41.370561" y="21.64913"/>
<use xlink:href="#glyph-0-9-b90de5dd" x="49.154561" y="21.64913"/>
</g>
<g fill="rgb(0%, 0%, 0%)" fill-opacity="1">
<use xlink:href="#glyph-6-0-b90de5dd" x="57.862562" y="16.04913"/>
</g>
<g clip-path="url(#clip-0-b90de5dd)">
<path fill="none" stroke-width="1.5" stroke-linecap="butt" stroke-linejoin="miter" stroke="rgb(0%, 44.705883%, 69.803923%)" stroke-opacity="1" stroke-miterlimit="2" d="M 96.226562 16.519531 L 96.398438 16.570312 L 96.570312 16.660156 L 96.742188 16.78125 L 96.914062 16.804688 L 97.085938 16.953125 L 97.261719 16.960938 L 97.433594 17.039062 L 97.605469 16.980469 L 97.777344 17.050781 L 97.949219 17.089844 L 98.121094 17.152344 L 98.292969 17.277344 L 98.464844 17.464844 L 98.636719 17.445312 L 98.808594 17.472656 L 98.980469 17.605469 L 99.152344 17.546875 L 99.324219 17.769531 L 99.496094 17.667969 L 99.667969 17.605469 L 99.839844 17.707031 L 100.015625 17.683594 L 100.1875 17.734375 L 100.359375 17.746094 L 100.53125 17.632812 L 100.703125 17.640625 L 100.875 17.824219 L 101.046875 17.78125 L 101.21875 17.917969 L 101.390625 17.804688 L 101.5625 17.878906 L 101.734375 17.613281 L 101.90625 17.6875 L 102.078125 17.675781 L 102.25 17.636719 L 102.421875 17.992188 L 102.59375 17.753906 L 102.769531 17.769531 L 102.941406 17.6875 L 103.113281 17.785156 L 103.285156 17.773438 L 103.457031 17.816406 L 103.628906 17.65625 L 103.800781 17.882812 L 103.972656 17.808594 L 104.144531 17.75 L 104.316406 17.929688 L 104.488281 17.667969 L 104.660156 17.878906 L 104.832031 17.738281 L 105.003906 17.65625 L 105.175781 17.773438 L 105.347656 17.929688 L 105.523438 17.644531 L 105.695312 17.867188 L 105.867188 17.832031 L 106.039062 17.824219 L 106.210938 17.785156 L 106.382812 17.824219 L 106.554688 17.894531 L 106.726562 17.875 L 106.898438 17.882812 L 107.070312 17.710938 L 107.242188 17.792969 L 107.414062 17.765625 L 107.585938 17.773438 L 107.757812 17.773438 L 107.929688 17.734375 L 108.101562 17.753906 L 108.277344 17.75 L 108.621094 17.648438 L 108.792969 17.871094 L 108.964844 17.796875 L 109.136719 17.929688 L 109.308594 17.757812 L 109.480469 17.875 L 109.652344 17.894531 L 109.824219 17.730469 L 109.996094 17.773438 L 110.167969 17.890625 L 110.339844 17.839844 L 110.511719 17.808594 L 110.683594 17.785156 L 110.855469 17.773438 L 111.03125 17.910156 L 111.203125 17.75 L 111.375 17.71875 L 111.546875 17.953125 L 111.71875 17.652344 L 111.890625 17.867188 L 112.0625 17.800781 L 112.234375 17.777344 L 112.40625 17.800781 L 112.578125 17.839844 L 112.75 17.710938 L 112.921875 17.894531 L 113.09375 17.894531 L 113.265625 17.78125 L 113.4375 17.796875 L 113.609375 17.820312 L 113.785156 17.792969 L 113.957031 17.75 L 114.128906 17.816406 L 114.300781 17.820312 L 114.472656 17.75 L 114.644531 17.757812 L 114.816406 17.769531 L 114.988281 17.851562 L 115.160156 17.78125 L 115.332031 17.753906 L 115.503906 17.703125 L 115.675781 17.925781 L 115.847656 17.808594 L 116.019531 17.742188 L 116.191406 17.816406 L 116.363281 17.945312 L 116.539062 17.894531 L 116.710938 17.875 L 116.882812 17.785156 L 117.054688 17.714844 L 117.226562 17.808594 L 117.398438 17.710938 L 117.570312 17.871094 L 117.742188 17.792969 L 117.914062 17.84375 L 118.085938 17.839844 L 118.257812 17.859375 L 118.429688 17.746094 L 118.601562 17.886719 L 118.773438 17.796875 L 118.945312 17.871094 L 119.117188 17.867188 L 119.292969 17.800781 L 119.464844 17.898438 L 119.636719 17.703125 L 119.808594 17.832031 L 119.980469 17.824219 L 120.152344 17.734375 L 120.324219 17.816406 L 120.496094 17.875 L 120.667969 17.992188 L 120.839844 17.800781 L 121.011719 17.605469 L 121.183594 17.960938 L 121.355469 17.980469 L 121.527344 17.910156 L 121.699219 17.746094 L 121.871094 17.789062 L 122.042969 17.695312 L 122.21875 17.902344 L 122.390625 17.851562 L 122.5625 17.832031 L 122.734375 17.835938 L 122.90625 17.785156 L 123.078125 17.933594 L 123.25 17.914062 L 123.421875 17.789062 L 123.59375 17.96875 L 123.765625 17.894531 L 123.9375 17.761719 L 124.109375 17.785156 L 124.28125 17.929688 L 124.453125 17.890625 L 124.625 17.8125 L 124.796875 17.847656 L 124.972656 17.851562 L 125.144531 17.863281 L 125.316406 17.929688 L 125.488281 17.917969 L 125.660156 17.894531 L 125.832031 17.894531 L 126.003906 17.898438 L 126.175781 17.90625 L 126.347656 17.726562 L 126.519531 17.71875 L 126.691406 17.984375 L 126.863281 17.761719 L 127.035156 17.902344 L 127.207031 17.800781 L 127.378906 17.910156 L 127.550781 17.855469 L 127.726562 17.882812 L 127.898438 17.792969 L 128.070312 17.921875 L 128.242188 17.785156 L 128.414062 17.898438 L 128.585938 17.757812 L 128.757812 17.847656 L 128.929688 17.800781 L 129.101562 17.890625 L 129.273438 17.863281 L 129.445312 17.71875 L 129.617188 17.933594 L 129.789062 17.976562 L 129.960938 17.882812 L 130.132812 17.796875 L 130.304688 17.628906 L 130.480469 17.882812 L 130.652344 17.765625 L 130.824219 17.726562 L 130.996094 17.777344 L 131.167969 17.710938 L 131.339844 18.007812 L 131.511719 17.835938 L 131.683594 17.90625 L 131.855469 17.878906 L 132.027344 17.824219 L 132.199219 17.824219 L 132.371094 17.957031 L 132.542969 17.867188 L 132.714844 18.046875 L 132.886719 17.894531 L 133.058594 17.875 L 133.234375 17.828125 L 133.40625 17.699219 L 133.578125 17.914062 L 133.75 17.816406 L 133.921875 17.894531 L 134.09375 17.871094 L 134.265625 17.753906 L 134.4375 17.910156 L 134.609375 17.761719 L 134.78125 17.863281 L 134.953125 17.832031 L 135.125 17.683594 L 135.296875 17.882812 L 135.46875 17.785156 L 135.640625 17.929688 L 135.8125 17.835938 L 135.988281 17.925781 L 136.160156 17.828125 L 136.332031 17.808594 L 136.503906 17.90625 L 136.675781 17.992188 L 136.847656 17.769531 L 137.019531 17.933594 L 137.191406 17.65625 L 137.363281 17.808594 L 137.535156 17.996094 L 137.707031 17.929688 L 137.878906 17.875 L 138.050781 17.742188 L 138.222656 17.808594 L 138.394531 17.851562 L 138.566406 17.972656 L 138.742188 17.800781 L 138.914062 17.878906 L 139.085938 17.746094 L 139.257812 17.992188 L 139.429688 17.839844 L 139.601562 17.832031 L 139.773438 17.871094 L 139.945312 17.886719 L 140.117188 17.957031 L 140.289062 17.902344 L 140.460938 17.894531 L 140.632812 17.910156 L 140.804688 17.792969 L 140.976562 17.988281 L 141.148438 17.796875 L 141.320312 17.828125 L 141.496094 17.773438 L 141.667969 17.902344 L 141.839844 17.929688 L 142.011719 17.839844 L 142.183594 17.960938 L 142.355469 17.960938 L 142.527344 18.089844 L 142.699219 17.820312 L 142.871094 17.78125 L 143.042969 17.902344 L 143.386719 17.800781 L 143.558594 17.875 L 143.730469 17.714844 L 143.902344 17.859375 L 144.074219 17.96875 L 144.25 17.746094 L 144.421875 17.890625 L 144.59375 17.773438 L 144.765625 17.726562 L 144.9375 17.835938 L 145.109375 17.792969 L 145.28125 17.796875 L 145.453125 17.757812 L 145.625 17.777344 L 145.796875 17.925781 L 145.96875 17.941406 L 146.140625 18.054688 L 146.3125 17.691406 L 146.484375 17.75 L 146.65625 17.777344 L 146.828125 17.949219 L 147.003906 17.792969 L 147.175781 17.878906 L 147.347656 17.886719 L 147.519531 17.960938 L 147.691406 17.886719 "/>
</g>
<g clip-path="url(#clip-1-b90de5dd)">
<path fill="none" stroke-width="1.5" stroke-linecap="butt" stroke-linejoin="miter" stroke="rgb(90.196079%, 62.352943%, 0%)" stroke-opacity="1" stroke-miterlimit="2" d="M 147.863281 16.582031 L 148.035156 16.847656 L 148.207031 17.265625 L 148.378906 17.488281 L 148.550781 17.761719 L 148.722656 17.953125 L 148.894531 17.898438 L 149.066406 18.367188 L 149.238281 18.53125 L 149.410156 18.410156 L 149.582031 18.359375 L 149.753906 18.332031 L 149.929688 18.328125 L 150.101562 18.648438 L 150.273438 18.582031 L 150.445312 19.082031 L 150.617188 18.867188 L 150.789062 18.632812 L 150.960938 19.097656 L 151.132812 19.078125 L 151.304688 19.117188 L 151.476562 19.289062 L 151.648438 19.148438 L 151.820312 19.457031 L 151.992188 19.714844 L 152.164062 20.230469 L 152.335938 20.363281 L 152.507812 20.394531 L 152.683594 20.964844 L 152.855469 20.605469 L 153.027344 21.265625 L 153.199219 21.355469 L 153.371094 21.523438 L 153.542969 21.097656 L 153.714844 21.5 L 153.886719 21.886719 L 154.058594 21.523438 L 154.230469 21.457031 L 154.402344 21.347656 L 154.574219 21.816406 L 154.746094 21.976562 L 154.917969 21.917969 L 155.089844 21.878906 L 155.261719 21.902344 L 155.4375 21.648438 L 155.609375 21.984375 L 155.78125 21.957031 L 155.953125 21.839844 L 156.125 21.796875 L 156.296875 22.289062 L 156.46875 22.171875 L 156.640625 22.324219 L 156.8125 22.773438 L 156.984375 22.113281 L 157.15625 22.585938 L 157.328125 22.539062 L 157.5 22.765625 L 157.671875 22.636719 L 157.84375 22.644531 L 158.015625 23.179688 L 158.191406 22.101562 L 158.363281 22.601562 L 158.535156 22.5 L 158.707031 22.40625 L 158.878906 22.769531 L 159.050781 22.851562 L 159.222656 22.765625 L 159.394531 22.734375 L 159.566406 23.074219 L 159.738281 22.433594 L 159.910156 22.863281 L 160.082031 23.398438 L 160.253906 23.4375 L 160.425781 22.777344 L 160.597656 22.828125 L 160.769531 22.992188 L 160.945312 22.527344 L 161.117188 22.820312 L 161.289062 23.085938 L 161.460938 23.230469 L 161.632812 22.707031 L 161.804688 23.332031 L 161.976562 23.0625 L 162.148438 22.851562 L 162.320312 22.273438 L 162.492188 22.898438 L 162.664062 23.136719 L 162.835938 22.773438 L 163.007812 22.75 L 163.179688 22.621094 L 163.351562 22.480469 L 163.523438 22.476562 L 163.699219 22.789062 L 163.871094 22.429688 L 164.042969 22.355469 L 164.214844 22.777344 L 164.386719 22.21875 L 164.558594 22.742188 L 164.730469 22.628906 L 164.902344 22.570312 L 165.074219 23.03125 L 165.246094 22.265625 L 165.417969 23.058594 L 165.589844 22.714844 L 165.761719 22.753906 L 165.933594 22.371094 L 166.105469 22.566406 L 166.277344 22.859375 L 166.453125 23.566406 L 166.625 23.527344 L 166.796875 22.480469 L 166.96875 23.328125 L 167.140625 23.246094 L 167.3125 23.566406 L 167.484375 23.539062 L 167.65625 22.789062 L 167.828125 23.089844 L 168 22.804688 L 168.171875 23.085938 L 168.34375 23.050781 L 168.515625 23.371094 L 168.6875 23.753906 L 168.859375 23.101562 L 169.03125 23.167969 L 169.207031 23.207031 L 169.378906 23.5625 L 169.550781 23.75 L 169.722656 23.375 L 169.894531 23.492188 L 170.066406 23.421875 L 170.238281 23.636719 L 170.410156 23.308594 L 170.582031 23.390625 L 170.753906 23.316406 L 170.925781 23.804688 L 171.097656 23.320312 L 171.269531 23.167969 L 171.441406 23.449219 L 171.613281 23.089844 L 171.785156 23.773438 L 171.960938 23.96875 L 172.132812 23.339844 L 172.304688 23.433594 L 172.476562 23.183594 L 172.648438 23.324219 L 172.820312 23.03125 L 172.992188 23.148438 L 173.164062 23.789062 L 173.335938 23.746094 L 173.507812 23.667969 L 173.679688 23.75 L 173.851562 23.4375 L 174.023438 23.902344 L 174.195312 23.0625 L 174.367188 23.261719 L 174.539062 23.886719 L 174.714844 23.859375 L 174.886719 23.066406 L 175.058594 22.9375 L 175.230469 22.933594 L 175.402344 23.363281 L 175.574219 23.8125 L 175.746094 23.621094 L 175.917969 22.667969 L 176.089844 23.765625 L 176.261719 22.917969 L 176.433594 23.257812 L 176.605469 23.238281 L 176.777344 23.523438 L 176.949219 23.5625 L 177.121094 23.605469 L 177.292969 23.253906 L 177.464844 23.144531 L 177.640625 23.523438 L 177.8125 22.941406 L 177.984375 23.707031 L 178.15625 22.847656 L 178.328125 23.710938 L 178.5 23.605469 L 178.671875 23.402344 L 178.84375 23.800781 L 179.015625 23.472656 L 179.1875 23.496094 L 179.359375 23.765625 L 179.53125 23.265625 L 179.703125 23.476562 L 179.875 23.652344 L 180.046875 23.492188 L 180.21875 23.335938 L 180.394531 23.042969 L 180.566406 23.816406 L 180.738281 23.425781 L 180.910156 23.84375 L 181.082031 23.800781 L 181.253906 23.386719 L 181.425781 23.632812 L 181.597656 23.550781 L 181.769531 22.917969 L 181.941406 23.628906 L 182.113281 23.726562 L 182.285156 23.375 L 182.457031 23.265625 L 182.800781 23.140625 L 182.972656 23.203125 L 183.148438 23.949219 L 183.320312 23.097656 L 183.492188 23.597656 L 183.664062 23.128906 L 183.835938 23.324219 L 184.007812 23.34375 L 184.179688 23.636719 L 184.351562 23.28125 L 184.523438 24.214844 L 184.695312 24.066406 L 184.867188 23.042969 L 185.039062 23.703125 L 185.210938 23.074219 L 185.382812 23.910156 L 185.554688 23.832031 L 185.726562 23.742188 L 185.902344 23.179688 L 186.074219 23.28125 L 186.246094 23.742188 L 186.417969 23.402344 L 186.589844 23.820312 L 186.761719 23.390625 L 186.933594 23.058594 L 187.105469 23.371094 L 187.277344 23.777344 L 187.449219 23.363281 L 187.621094 23.375 L 187.792969 23.214844 L 187.964844 23.59375 L 188.136719 23.902344 L 188.308594 23.378906 L 188.480469 23.917969 L 188.65625 23.472656 L 188.828125 23.152344 L 189 23.496094 L 189.171875 24.109375 L 189.34375 23.988281 L 189.515625 22.9375 L 189.6875 23.613281 L 189.859375 23.550781 L 190.03125 23.527344 L 190.203125 23.058594 L 190.375 23.59375 L 190.546875 23.832031 L 190.71875 23.957031 L 190.890625 23.796875 L 191.0625 23.835938 L 191.234375 23.484375 L 191.410156 22.746094 L 191.582031 23.730469 L 191.753906 23.253906 L 191.925781 23.574219 L 192.097656 24.132812 L 192.269531 23.324219 L 192.441406 23.386719 L 192.613281 23.9375 L 192.785156 23.527344 L 192.957031 23.808594 L 193.128906 23.425781 L 193.300781 23.644531 L 193.472656 23.878906 L 193.644531 23.3125 L 193.816406 23.335938 L 193.988281 23.535156 L 194.164062 23.699219 L 194.335938 23.804688 L 194.507812 23.6875 L 194.679688 23.648438 L 194.851562 23.488281 L 195.023438 23.339844 L 195.195312 23.984375 L 195.367188 23.640625 L 195.539062 23.507812 L 195.710938 23.566406 L 195.882812 24.113281 L 196.054688 24.03125 L 196.226562 23.277344 L 196.398438 24.25 L 196.570312 23.5 L 196.742188 23.09375 L 196.917969 23.507812 L 197.089844 23.871094 L 197.261719 23.496094 L 197.433594 23.863281 L 197.605469 23.972656 L 197.777344 23.414062 L 197.949219 24.039062 L 198.121094 23.601562 L 198.292969 23.519531 L 198.464844 23.417969 L 198.636719 23.5 L 198.808594 23.433594 L 198.980469 23.273438 L 199.152344 23.886719 L 199.324219 23.699219 "/>
</g>
<g clip-path="url(#clip-2-b90de5dd)">
<path fill="none" stroke-width="1.5" stroke-linecap="butt" stroke-linejoin="miter" stroke="rgb(0%, 61.960787%, 45.09804%)" stroke-opacity="1" stroke-miterlimit="2" d="M 199.496094 16.746094 L 199.671875 17.996094 L 199.84375 19.160156 L 200.015625 20.527344 L 200.1875 21.273438 L 200.359375 21.636719 L 200.53125 23.027344 L 200.703125 23.589844 L 200.875 22.953125 L 201.046875 23.917969 L 201.21875 24.1875 L 201.390625 24.34375 L 201.5625 24.738281 L 201.734375 25.730469 L 201.90625 26.34375 L 202.078125 26.3125 L 202.25 25.417969 L 202.425781 26.050781 L 202.597656 26.875 L 202.769531 27.058594 L 202.941406 27.332031 L 203.113281 28.246094 L 203.285156 28.921875 L 203.457031 28.121094 L 203.628906 29.203125 L 203.800781 28.671875 L 203.972656 29.871094 L 204.144531 30.726562 L 204.316406 31.210938 L 204.488281 33.214844 L 204.660156 34.03125 L 204.832031 35.667969 L 205.003906 36.308594 L 205.175781 36.480469 L 205.351562 37.453125 L 205.523438 36.664062 L 205.695312 37.628906 L 205.867188 36.859375 L 206.039062 38.132812 L 206.210938 38.144531 L 206.382812 38.652344 L 206.554688 38.546875 L 206.726562 39.128906 L 206.898438 37.113281 L 207.070312 39.628906 L 207.242188 37.917969 L 207.414062 40.988281 L 207.585938 37.609375 L 207.757812 40.25 L 207.929688 39.953125 L 208.105469 39.359375 L 208.277344 42.492188 L 208.449219 40.085938 L 208.621094 40.964844 L 208.792969 40.878906 L 208.964844 40.003906 L 209.136719 40.414062 L 209.308594 42.347656 L 209.480469 41.140625 L 209.652344 40.453125 L 209.824219 40.730469 L 209.996094 40.347656 L 210.167969 41.566406 L 210.339844 41.390625 L 210.511719 39.730469 L 210.683594 42.78125 L 210.859375 41.46875 L 211.03125 40.597656 L 211.203125 41.964844 L 211.375 41.582031 L 211.546875 40.9375 L 211.71875 41.507812 L 211.890625 41.199219 L 212.0625 41.300781 L 212.234375 39.960938 L 212.40625 40.5 L 212.578125 42.535156 L 212.75 41.335938 L 212.921875 40.578125 L 213.09375 41.960938 L 213.265625 41.417969 L 213.4375 40.015625 L 213.613281 39.640625 L 213.785156 40.890625 L 213.957031 39.539062 L 214.128906 40.828125 L 214.300781 41.046875 L 214.472656 40.617188 L 214.644531 41.492188 L 214.816406 40.277344 L 214.988281 40.476562 L 215.160156 40.164062 L 215.332031 41.296875 L 215.503906 40.046875 L 215.675781 41.761719 L 215.847656 42.75 L 216.019531 43.207031 L 216.191406 38.335938 L 216.367188 41.113281 L 216.539062 40.457031 L 216.710938 39.996094 L 216.882812 41.8125 L 217.054688 40.535156 L 217.226562 42.316406 L 217.398438 42.15625 L 217.570312 42.546875 L 217.742188 42.382812 L 217.914062 42.445312 L 218.085938 43.070312 L 218.257812 41.625 L 218.429688 41.195312 L 218.601562 42.457031 L 218.773438 41.621094 L 218.945312 41.699219 L 219.121094 43.722656 L 219.292969 40.121094 L 219.464844 40.460938 L 219.636719 42.332031 L 219.808594 43.339844 L 219.980469 39.988281 L 220.152344 42.046875 L 220.324219 41.945312 L 220.496094 41.5 L 220.667969 41.679688 L 220.839844 43.113281 L 221.011719 42.667969 L 221.183594 43.242188 L 221.355469 41.550781 L 221.527344 42.363281 L 221.699219 43.234375 L 221.875 42.953125 L 222.046875 42.488281 L 222.21875 41.023438 L 222.390625 42.300781 L 222.5625 43.234375 L 222.734375 43.0625 L 222.90625 41.082031 L 223.078125 42.703125 L 223.25 41.476562 L 223.421875 40.660156 L 223.59375 42.421875 L 223.765625 43.339844 L 223.9375 42.253906 L 224.109375 41.894531 L 224.28125 42.375 L 224.453125 42.554688 L 224.628906 44.925781 L 224.800781 42.527344 L 224.972656 42.308594 L 225.144531 42.050781 L 225.316406 44.070312 L 225.488281 44.664062 L 225.660156 41.085938 L 225.832031 41.789062 L 226.003906 42.304688 L 226.175781 42.796875 L 226.347656 41.421875 L 226.519531 43.824219 L 226.691406 42.375 L 226.863281 41.550781 L 227.035156 40.609375 L 227.207031 43.222656 L 227.382812 42.320312 L 227.554688 40.878906 L 227.726562 41.625 L 227.898438 43.589844 L 228.070312 42.140625 L 228.242188 42.25 L 228.414062 44.171875 L 228.585938 41 L 228.757812 41.628906 L 228.929688 40.386719 L 229.101562 40.507812 L 229.273438 42.648438 L 229.445312 43.996094 L 229.617188 43.441406 L 229.789062 41.3125 L 229.960938 42.585938 L 230.136719 44.847656 L 230.308594 42.34375 L 230.480469 42.5625 L 230.652344 41.417969 L 230.824219 42.011719 L 230.996094 42.589844 L 231.167969 42.847656 L 231.339844 42.453125 L 231.511719 41.007812 L 231.683594 39.378906 L 231.855469 41.917969 L 232.027344 42.917969 L 232.199219 45.160156 L 232.371094 41.589844 L 232.542969 41.179688 L 232.714844 41.855469 L 232.886719 42.910156 L 233.0625 42.972656 L 233.234375 43.039062 L 233.40625 43.359375 L 233.578125 41.324219 L 233.75 41.5625 L 233.921875 42.441406 L 234.09375 41.984375 L 234.265625 42.523438 L 234.4375 43.5 L 234.609375 43.523438 L 234.78125 42.125 L 234.953125 41.730469 L 235.125 41.390625 L 235.296875 41.257812 L 235.46875 40.742188 L 235.640625 41.953125 L 235.816406 43.359375 L 235.988281 42.34375 L 236.160156 41.6875 L 236.332031 43.1875 L 236.503906 40.601562 L 236.675781 42.398438 L 236.847656 40.976562 L 237.019531 42.964844 L 237.191406 41.898438 L 237.363281 43.355469 L 237.535156 40.996094 L 237.707031 41.199219 L 237.878906 41.5 L 238.050781 43.210938 L 238.222656 43.199219 L 238.394531 42.144531 L 238.570312 43.976562 L 238.742188 41.453125 L 238.914062 40.140625 L 239.085938 42.136719 L 239.257812 42.945312 L 239.429688 41.863281 L 239.601562 41.742188 L 239.773438 44.074219 L 239.945312 44.101562 L 240.117188 44.59375 L 240.289062 41.589844 L 240.460938 43.964844 L 240.632812 41.921875 L 240.804688 42.105469 L 240.976562 40.464844 L 241.148438 41.808594 L 241.324219 40.367188 L 241.496094 43.007812 L 241.667969 41.804688 L 241.839844 44.007812 L 242.011719 43.882812 L 242.183594 41.261719 L 242.355469 42.554688 L 242.527344 43.121094 L 242.699219 42.8125 L 242.871094 43.269531 L 243.042969 43.355469 L 243.214844 40.105469 L 243.386719 41.625 L 243.558594 42.367188 L 243.730469 42.4375 L 243.902344 40.328125 L 244.078125 41.566406 L 244.25 41.53125 L 244.421875 42.222656 L 244.59375 44.003906 L 244.765625 42.382812 L 244.9375 42.941406 L 245.109375 41.859375 L 245.28125 43.277344 L 245.453125 43.351562 L 245.625 42.222656 L 245.796875 39.523438 L 245.96875 44.128906 L 246.140625 42.332031 L 246.3125 41.097656 L 246.484375 41.878906 L 246.65625 40.667969 L 246.832031 42.460938 L 247.003906 43.332031 L 247.175781 44.109375 L 247.347656 43.089844 L 247.519531 41.710938 L 247.691406 43.003906 L 247.863281 42.6875 L 248.035156 41.507812 L 248.207031 41.363281 L 248.378906 43.640625 L 248.550781 43.652344 L 248.722656 43.511719 L 248.894531 41.550781 L 249.066406 42.269531 L 249.238281 42.742188 L 249.410156 41.882812 L 249.585938 43.910156 L 249.757812 41.859375 L 249.929688 40.207031 L 250.101562 42.621094 L 250.273438 42.457031 L 250.445312 42.140625 L 250.617188 43.039062 L 250.789062 40.722656 L 250.960938 41.675781 "/>
</g>
<g clip-path="url(#clip-3-b90de5dd)">
<path fill="none" stroke-width="1.5" stroke-linecap="butt" stroke-linejoin="miter" stroke="rgb(80.000001%, 47.450981%, 65.490198%)" stroke-opacity="1" stroke-miterlimit="2" d="M 251.132812 16.648438 L 251.304688 19.496094 L 251.476562 20.355469 L 251.648438 20.109375 L 251.820312 23.125 L 251.992188 25.972656 L 252.164062 30.203125 L 252.339844 30.703125 L 252.511719 30.589844 L 252.683594 33.875 L 252.855469 35.023438 L 253.027344 34.863281 L 253.199219 35.214844 L 253.371094 35.421875 L 253.542969 37.460938 L 253.714844 36.101562 L 253.886719 38.628906 L 254.058594 39.09375 L 254.230469 38.726562 L 254.402344 38.753906 L 254.574219 37.582031 L 254.746094 37.730469 L 254.917969 38.546875 L 255.09375 39.996094 L 255.265625 38.699219 L 255.4375 41.609375 L 255.609375 40.03125 L 255.78125 39.546875 L 255.953125 41.054688 L 256.125 39.605469 L 256.296875 40.78125 L 256.46875 40.550781 L 256.640625 39.683594 L 256.8125 40.910156 L 256.984375 41.328125 L 257.15625 40.9375 L 257.328125 42.40625 L 257.5 40.277344 L 257.671875 42.59375 L 257.847656 42.734375 L 258.019531 41.371094 L 258.191406 40.3125 L 258.363281 41.589844 L 258.535156 40.316406 L 258.707031 41.148438 L 258.878906 43 L 259.050781 41.257812 L 259.222656 40.609375 L 259.394531 41.613281 L 259.566406 39.765625 L 259.738281 42.316406 L 259.910156 39.8125 L 260.082031 42.402344 L 260.253906 41.511719 L 260.425781 41.789062 L 260.597656 41.660156 L 260.773438 42.746094 L 260.945312 41.121094 L 261.117188 42.179688 L 261.289062 41.203125 L 261.460938 42.203125 L 261.632812 41.21875 L 261.804688 38.734375 L 261.976562 41.285156 L 262.148438 39.636719 L 262.320312 40.914062 L 262.492188 41.015625 L 262.664062 40.132812 L 262.835938 40.214844 L 263.007812 41.082031 L 263.179688 41.109375 L 263.351562 40.945312 L 263.527344 39.917969 L 263.699219 40.78125 L 263.871094 40.859375 L 264.042969 42.917969 L 264.214844 41.070312 L 264.386719 41.738281 L 264.558594 39.667969 L 264.730469 41.53125 L 264.902344 41.15625 L 265.074219 41.011719 L 265.246094 40.699219 L 265.417969 40.40625 L 265.589844 41.785156 L 265.761719 40.511719 L 265.933594 42.144531 L 266.105469 41.652344 L 266.28125 41.726562 L 266.453125 40.574219 L 266.625 41.953125 L 266.796875 42.164062 L 266.96875 40.652344 L 267.140625 41.175781 L 267.3125 41.855469 L 267.484375 41.910156 L 267.65625 41.625 L 267.828125 42.355469 L 268 43.292969 L 268.171875 43.785156 L 268.34375 41.859375 L 268.515625 41.894531 L 268.6875 41.035156 L 268.859375 42.417969 L 269.035156 41.230469 L 269.207031 41.714844 L 269.378906 40.011719 L 269.550781 40.703125 L 269.722656 41.542969 L 269.894531 42.539062 L 270.066406 41.0625 L 270.238281 41.71875 L 270.410156 41.128906 L 270.582031 42.757812 L 270.753906 41.4375 L 270.925781 40.414062 L 271.097656 42.796875 L 271.269531 41.519531 L 271.441406 41.476562 L 271.613281 41.707031 L 271.789062 42.339844 L 271.960938 41.320312 L 272.132812 40.375 L 272.304688 40.644531 L 272.476562 41.253906 L 272.648438 41.324219 L 272.820312 42.65625 L 272.992188 41.558594 L 273.164062 40.414062 L 273.335938 40.625 L 273.507812 42.566406 L 273.679688 42.085938 L 273.851562 40.460938 L 274.023438 42.46875 L 274.195312 41.566406 L 274.367188 41.972656 L 274.542969 40.78125 L 274.714844 41.898438 L 274.886719 41.191406 L 275.058594 42.28125 L 275.230469 41.75 L 275.402344 40.242188 L 275.574219 42.3125 L 275.746094 43.550781 L 275.917969 43.070312 L 276.089844 43.136719 L 276.261719 43 L 276.433594 42.128906 L 276.605469 41.042969 L 276.777344 40.90625 L 276.949219 42.832031 L 277.121094 43.265625 L 277.296875 41.785156 L 277.46875 40.390625 L 277.640625 43.042969 L 277.8125 41.941406 L 277.984375 40.414062 L 278.15625 41.417969 L 278.328125 40.285156 L 278.5 43.082031 L 278.671875 42.578125 L 278.84375 42.980469 L 279.015625 41.359375 L 279.1875 42.488281 L 279.359375 43.308594 L 279.53125 42.191406 L 279.703125 40.289062 L 279.875 44.496094 L 280.050781 43.195312 L 280.222656 42.113281 L 280.394531 42.054688 L 280.566406 42.277344 L 280.738281 40.65625 L 280.910156 42.085938 L 281.082031 43.289062 L 281.253906 41.476562 L 281.425781 41.898438 L 281.597656 40.597656 L 281.769531 42.714844 L 281.941406 41.800781 L 282.113281 43.429688 L 282.285156 42.371094 L 282.457031 42.1875 L 282.628906 42.925781 L 282.804688 43.96875 L 282.976562 43.542969 L 283.148438 41.75 L 283.320312 41.308594 L 283.492188 42.125 L 283.664062 40.757812 L 283.835938 44.363281 L 284.007812 42.226562 L 284.179688 43.144531 L 284.351562 43.789062 L 284.523438 42.710938 L 284.695312 41.246094 L 284.867188 40.59375 L 285.039062 42.027344 L 285.210938 42.429688 L 285.382812 43.582031 L 285.558594 41.917969 L 285.730469 41.339844 L 285.902344 42.351562 L 286.074219 42.347656 L 286.246094 41.429688 L 286.417969 43.273438 L 286.589844 42.445312 L 286.761719 41.855469 L 286.933594 43.03125 L 287.105469 42.230469 L 287.277344 41.367188 L 287.449219 43.246094 L 287.621094 40.714844 L 287.792969 44.554688 L 287.964844 42.539062 L 288.136719 43.71875 L 288.308594 42.039062 L 288.484375 42.472656 L 288.65625 41.542969 L 288.828125 43.347656 L 289 42.859375 L 289.171875 41.617188 L 289.34375 43.714844 L 289.515625 40.746094 L 289.6875 41.390625 L 289.859375 41.632812 L 290.03125 42.265625 L 290.203125 41.265625 L 290.375 42.960938 L 290.546875 41.152344 L 290.71875 43.597656 L 290.890625 42.59375 L 291.0625 43.300781 L 291.238281 40.183594 L 291.410156 41.359375 L 291.582031 43.136719 L 291.753906 42.4375 L 291.925781 42.8125 L 292.097656 41.148438 L 292.269531 42.15625 L 292.441406 40.722656 L 292.613281 41.1875 L 292.785156 42.082031 L 292.957031 41.640625 L 293.128906 40.824219 L 293.300781 44.128906 L 293.472656 42.167969 L 293.644531 40.015625 L 293.816406 40.746094 L 293.992188 42.714844 L 294.164062 41.796875 L 294.335938 42.558594 L 294.507812 41.289062 L 294.679688 41.222656 L 294.851562 41.722656 L 295.023438 42.710938 L 295.195312 42.460938 L 295.367188 42.058594 L 295.539062 42.265625 L 295.710938 41.082031 L 295.882812 41.476562 L 296.054688 42.660156 L 296.226562 43.515625 L 296.398438 42.488281 L 296.570312 41.019531 L 296.746094 42.789062 L 296.917969 41.351562 L 297.089844 42.457031 L 297.261719 41.378906 L 297.433594 42.027344 L 297.605469 42.183594 L 297.777344 41.738281 L 297.949219 42.003906 L 298.121094 41.453125 L 298.292969 43.214844 L 298.464844 41.582031 L 298.636719 42.121094 L 298.808594 43.078125 L 298.980469 42.089844 L 299.152344 42.449219 L 299.324219 41.425781 L 299.5 42.203125 L 299.671875 42.867188 L 299.84375 42.390625 L 300.015625 42.917969 L 300.1875 42.554688 L 300.359375 43.699219 L 300.53125 42.792969 L 300.703125 41.78125 L 300.875 44.835938 L 301.046875 43.667969 L 301.21875 43.714844 L 301.390625 43.253906 L 301.5625 43.964844 L 301.734375 43.433594 L 301.90625 45.128906 L 302.078125 43.882812 L 302.253906 42.78125 L 302.425781 44.300781 L 302.597656 43.867188 L 302.769531 44.617188 L 302.941406 44.410156 L 303.113281 44.554688 L 303.285156 44.53125 L 303.457031 44.785156 L 303.628906 44.726562 L 303.800781 45.800781 L 303.972656 45.074219 L 304.144531 48.171875 L 304.316406 45.667969 L 304.488281 47.597656 L 304.660156 46.132812 L 304.832031 45.546875 L 305.007812 45.699219 L 305.179688 46.191406 L 305.351562 46.59375 L 305.523438 46.320312 L 305.695312 47.882812 L 305.867188 47.269531 L 306.039062 47.046875 L 306.210938 47.277344 L 306.382812 48.269531 L 306.554688 46.945312 L 306.726562 50.011719 L 306.898438 49.414062 L 307.070312 48.378906 L 307.242188 47.792969 L 307.414062 47.324219 L 307.585938 49.828125 L 307.761719 48.992188 L 307.933594 49.710938 L 308.105469 47.464844 L 308.277344 51.484375 L 308.449219 50.058594 L 308.621094 47.722656 L 308.792969 49.203125 L 308.964844 52.003906 L 309.136719 49.695312 L 309.308594 49.253906 L 309.480469 49.828125 L 309.652344 50.476562 L 309.824219 51.257812 L 309.996094 49.921875 L 310.167969 49.40625 L 310.339844 50.988281 L 310.515625 49.460938 L 310.6875 50.847656 L 310.859375 51.324219 L 311.03125 50.085938 L 311.203125 49.453125 L 311.375 48.714844 L 311.546875 51.9375 L 311.71875 49.589844 L 311.890625 49.933594 L 312.0625 51.074219 L 312.234375 50.960938 L 312.40625 53.8125 L 312.578125 51.625 L 312.75 48.382812 L 312.921875 49.523438 L 313.09375 49.304688 L 313.269531 51.664062 L 313.441406 53.875 L 313.613281 51.277344 L 313.785156 51.6875 L 313.957031 49.933594 L 314.128906 48.367188 L 314.300781 52.007812 L 314.472656 50.375 L 314.644531 51.765625 L 314.816406 52.085938 L 314.988281 51.714844 L 315.160156 53.59375 L 315.332031 51.382812 L 315.503906 52.648438 L 315.675781 49.042969 L 315.847656 51.027344 L 316.019531 51.6875 L 316.195312 51.574219 L 316.367188 51.304688 L 316.539062 50.738281 L 316.710938 51.480469 L 316.882812 51.421875 L 317.054688 49.046875 L 317.226562 52.320312 L 317.398438 50.457031 L 317.570312 53.1875 L 317.742188 49.5625 L 317.914062 52.722656 L 318.085938 49.707031 L 318.257812 50.5625 L 318.429688 49.964844 L 318.601562 51.605469 L 318.773438 50.261719 L 318.949219 51.996094 L 319.121094 51.285156 L 319.292969 50.84375 L 319.464844 50.09375 L 319.636719 51.800781 L 319.808594 53.925781 L 319.980469 49.175781 L 320.152344 50.007812 L 320.324219 50.5 L 320.496094 52.609375 L 320.667969 50.832031 L 320.839844 50.679688 L 321.011719 52.347656 L 321.183594 50.574219 L 321.355469 51.308594 L 321.527344 51.710938 L 321.703125 53.234375 L 321.875 50.765625 L 322.046875 49.273438 L 322.21875 48.957031 L 322.390625 55.59375 L 322.5625 52.320312 L 322.734375 50.304688 L 322.90625 50.703125 L 323.078125 50.070312 L 323.25 50.664062 L 323.421875 51.726562 L 323.59375 53.082031 L 323.765625 50.382812 L 323.9375 51.933594 L 324.109375 50.898438 L 324.28125 49.714844 L 324.457031 50.179688 L 324.628906 50.234375 L 324.800781 51.011719 L 324.972656 51.546875 L 325.144531 51.746094 L 325.316406 53.125 L 325.488281 52.320312 L 325.660156 50.703125 L 325.832031 51.335938 L 326.003906 51.277344 L 326.175781 48.835938 L 326.347656 49.117188 L 326.519531 50.714844 L 326.691406 53.300781 L 326.863281 53.191406 L 327.035156 52.429688 L 327.210938 49.582031 L 327.382812 51.457031 L 327.554688 49.851562 L 327.726562 49.128906 L 327.898438 52.34375 L 328.070312 54.308594 L 328.242188 51.921875 L 328.414062 49.027344 L 328.585938 50.839844 L 328.757812 50.019531 L 328.929688 49.410156 L 329.101562 50.488281 L 329.273438 49.140625 L 329.445312 49.480469 L 329.617188 50.148438 L 329.789062 50.710938 L 329.964844 51.539062 L 330.136719 53.09375 L 330.308594 50.03125 L 330.480469 52.050781 L 330.652344 51.558594 L 330.824219 49.863281 L 330.996094 48.023438 L 331.167969 49.347656 L 331.339844 50.070312 L 331.511719 50.238281 L 331.683594 51.113281 L 331.855469 49.480469 L 332.027344 51.507812 L 332.199219 49.597656 L 332.371094 51.582031 L 332.542969 51.394531 L 332.71875 50.492188 L 332.890625 48.753906 L 333.0625 49.628906 L 333.234375 47.886719 L 333.40625 51.167969 L 333.578125 50.660156 L 333.75 51.125 L 333.921875 48.808594 L 334.09375 51.648438 L 334.265625 52.355469 L 334.4375 49.609375 L 334.609375 50.679688 L 334.78125 50.3125 L 334.953125 51.832031 L 335.125 52.046875 L 335.296875 50.296875 L 335.472656 50.046875 L 335.644531 52.945312 L 335.816406 50.570312 L 335.988281 52.867188 L 336.160156 52.296875 L 336.332031 51.984375 L 336.503906 51.617188 L 336.675781 51.527344 L 336.847656 50.910156 L 337.019531 50.660156 L 337.191406 51.058594 L 337.363281 50.355469 L 337.535156 51.378906 L 337.707031 51.554688 L 337.878906 49.253906 L 338.050781 52.070312 L 338.226562 50.363281 L 338.398438 50.140625 L 338.570312 50.808594 L 338.742188 49.316406 L 338.914062 52.945312 L 339.085938 51.90625 L 339.257812 50.984375 L 339.429688 51.484375 L 339.601562 51.25 L 339.773438 50.644531 L 339.945312 51.4375 L 340.117188 51.496094 L 340.289062 52.507812 L 340.460938 49.933594 L 340.632812 49.59375 L 340.804688 52.976562 L 340.976562 52.878906 L 341.152344 51.773438 L 341.324219 49.308594 L 341.496094 49.996094 L 341.667969 48.675781 L 341.839844 52.808594 L 342.011719 49.820312 L 342.183594 51.898438 L 342.355469 49.191406 L 342.527344 49.34375 L 342.699219 50.085938 L 342.871094 51.441406 L 343.042969 52.179688 L 343.214844 51.664062 L 343.386719 49.8125 L 343.558594 54.746094 L 343.730469 49.738281 L 343.90625 52.386719 L 344.078125 48.1875 L 344.25 51.984375 L 344.421875 50.285156 L 344.59375 52.496094 L 344.765625 52.707031 L 344.9375 51.09375 L 345.109375 52.71875 L 345.28125 51.914062 L 345.453125 50.058594 L 345.625 49.847656 L 345.796875 49.152344 L 345.96875 49.632812 L 346.140625 49.269531 L 346.3125 50.832031 L 346.484375 50.367188 L 346.660156 50.6875 L 346.832031 52.246094 L 347.003906 51.992188 L 347.175781 51.023438 L 347.347656 48.300781 L 347.519531 50.335938 L 347.691406 51.753906 L 347.863281 50.730469 L 348.035156 51.035156 L 348.207031 50.773438 L 348.378906 50.828125 L 348.550781 51.40625 L 348.722656 49.898438 L 348.894531 50.359375 L 349.066406 52.441406 L 349.238281 50.703125 L 349.414062 50.914062 L 349.585938 49.09375 L 349.757812 50.289062 L 349.929688 50.847656 L 350.101562 50.320312 L 350.273438 51.246094 L 350.445312 50.050781 L 350.617188 51.101562 L 350.789062 49.222656 L 350.960938 51.101562 L 351.132812 51.003906 L 351.304688 48.5625 L 351.476562 50.445312 L 351.648438 49.496094 L 351.820312 51.867188 L 351.992188 51.261719 L 352.167969 49.273438 L 352.339844 50.328125 L 352.511719 50.851562 L 352.683594 49.765625 L 352.855469 48.921875 L 353.027344 50.277344 L 353.199219 52.84375 L 353.371094 52.261719 L 353.542969 50.183594 L 353.714844 51.113281 L 353.886719 51.128906 L 354.058594 51.398438 L 354.230469 49.976562 "/>
</g>
<g clip-path="url(#clip-4-b90de5dd)">
<path fill="none" stroke-width="1.5" stroke-linecap="butt" stroke-linejoin="miter" stroke="rgb(33.725491%, 70.588237%, 91.37255%)" stroke-opacity="1" stroke-miterlimit="2" d="M 354.402344 16.890625 L 354.574219 23.085938 L 354.746094 27.0625 L 354.921875 26.914062 L 355.09375 31.515625 L 355.265625 35.78125 L 355.4375 35.828125 L 355.609375 35.890625 L 355.78125 38.414062 L 355.953125 39.929688 L 356.125 40.828125 L 356.296875 42.964844 L 356.46875 42.488281 L 356.640625 43.433594 L 356.8125 43.898438 L 356.984375 47.085938 L 357.15625 45.515625 L 357.328125 45.367188 L 357.5 44.320312 L 357.675781 46.152344 L 357.847656 45.664062 L 358.019531 47.742188 L 358.191406 46.351562 L 358.363281 46.789062 L 358.535156 48.050781 L 358.707031 47.703125 L 358.878906 47.09375 L 359.050781 46.5625 L 359.222656 46.957031 L 359.394531 48.648438 L 359.566406 47.441406 L 359.738281 46.980469 L 359.910156 47.679688 L 360.082031 49.523438 L 360.253906 50.703125 L 360.429688 49.445312 L 360.601562 51.183594 L 360.773438 50.117188 L 360.945312 47.289062 L 361.117188 47.515625 L 361.289062 48.433594 L 361.460938 48.152344 L 361.632812 51.085938 L 361.804688 50.054688 L 361.976562 45.210938 L 362.148438 48.972656 L 362.320312 48.746094 L 362.492188 48.941406 L 362.664062 48.757812 L 362.835938 52.167969 L 363.007812 48.605469 L 363.183594 51.453125 L 363.355469 49.085938 L 363.527344 48.90625 L 363.699219 49.785156 L 363.871094 50.527344 L 364.042969 49.070312 L 364.214844 51.375 L 364.386719 49.984375 L 364.558594 50.074219 L 364.730469 48.152344 L 364.902344 49.863281 L 365.074219 52.632812 L 365.246094 50.734375 L 365.417969 49.148438 L 365.589844 50.398438 L 365.761719 49.136719 L 365.9375 48.730469 L 366.109375 51.21875 L 366.28125 50.367188 L 366.453125 49.996094 L 366.625 50.238281 L 366.796875 49.695312 L 366.96875 49.359375 L 367.140625 50.671875 L 367.3125 50.453125 L 367.484375 48.046875 L 367.65625 50.917969 L 367.828125 52.089844 L 368 51.824219 L 368.171875 50.445312 L 368.34375 51.757812 L 368.515625 48.324219 L 368.6875 51.375 L 368.863281 52.722656 L 369.035156 48.96875 L 369.207031 48.355469 L 369.378906 47.875 L 369.550781 49.460938 L 369.722656 48.773438 L 369.894531 48.578125 L 370.066406 48.640625 L 370.238281 48.058594 L 370.410156 49.984375 L 370.582031 48.414062 L 370.753906 50.5 L 370.925781 49.640625 L 371.097656 49.078125 L 371.269531 48.027344 L 371.441406 50.042969 L 371.617188 50.847656 L 371.789062 50.039062 L 371.960938 52.832031 L 372.132812 49.886719 L 372.304688 49.695312 L 372.476562 49.824219 L 372.648438 49.339844 L 372.820312 50.578125 L 372.992188 50.3125 L 373.164062 48.878906 L 373.335938 49.386719 L 373.507812 50.25 L 373.679688 51.492188 L 373.851562 52.5 L 374.023438 52.328125 L 374.195312 50.414062 L 374.371094 49.09375 L 374.542969 49.730469 L 374.714844 49.210938 L 374.886719 52.074219 L 375.058594 50.324219 L 375.230469 50.046875 L 375.402344 50.800781 L 375.574219 52.339844 L 375.746094 50.785156 L 375.917969 49.890625 L 376.089844 50.128906 L 376.261719 49.867188 L 376.433594 51.613281 L 376.605469 50.125 L 376.777344 50.378906 L 376.949219 50.132812 L 377.125 48.476562 L 377.296875 48.792969 L 377.46875 51.164062 L 377.640625 51.988281 L 377.8125 51.074219 L 377.984375 50.894531 L 378.15625 49.320312 L 378.328125 52.242188 L 378.5 50.234375 L 378.671875 50.4375 L 378.84375 50.316406 L 379.015625 51.847656 L 379.1875 51.625 L 379.359375 51.34375 L 379.53125 51.226562 L 379.703125 52.589844 L 379.878906 49.894531 L 380.050781 52.0625 L 380.222656 51.894531 L 380.394531 52.46875 L 380.566406 50.222656 L 380.738281 51.589844 L 380.910156 48.484375 L 381.082031 51.0625 L 381.253906 51.453125 L 381.425781 48.824219 L 381.597656 51.371094 L 381.769531 53.519531 L 381.941406 50.890625 L 382.113281 50.132812 L 382.285156 50.503906 L 382.457031 49.378906 L 382.632812 49.160156 L 382.804688 50.25 L 382.976562 50.824219 L 383.148438 51.386719 L 383.320312 51.582031 L 383.492188 50.351562 L 383.664062 51.421875 L 383.835938 49.667969 L 384.007812 52.375 L 384.179688 53.242188 L 384.351562 52.921875 L 384.523438 51.648438 L 384.695312 50.496094 L 384.867188 52.351562 L 385.039062 51.136719 L 385.210938 51.121094 L 385.386719 53.691406 L 385.558594 50.460938 L 385.730469 51.535156 L 385.902344 49.445312 L 386.074219 50.722656 L 386.246094 52.070312 L 386.417969 52.296875 L 386.589844 53.738281 L 386.761719 50.105469 L 386.933594 49.507812 L 387.105469 50 L 387.277344 50.28125 L 387.449219 50.976562 L 387.621094 50.40625 L 387.792969 51.421875 L 387.964844 49.980469 L 388.140625 48.832031 L 388.3125 51.429688 L 388.484375 51.941406 L 388.65625 49.472656 L 388.828125 51.851562 L 389 50.421875 L 389.171875 50.324219 L 389.34375 50.941406 L 389.515625 52.574219 L 389.6875 49.886719 L 389.859375 51.460938 L 390.03125 49.28125 L 390.203125 49.328125 L 390.375 50.847656 L 390.546875 51.300781 L 390.71875 51.003906 L 390.894531 51.996094 L 391.066406 49.398438 L 391.238281 51.867188 L 391.410156 50.042969 L 391.582031 50.132812 L 391.753906 50.980469 L 391.925781 52.4375 L 392.097656 50.652344 L 392.269531 50.257812 L 392.441406 50.214844 L 392.613281 51.832031 L 392.785156 50.480469 L 392.957031 49.734375 L 393.128906 53.152344 L 393.300781 52.609375 L 393.472656 49.96875 L 393.648438 50.5625 L 393.820312 51.246094 L 393.992188 52.503906 L 394.164062 52.519531 L 394.335938 51.574219 L 394.507812 47.265625 L 394.679688 48.101562 L 394.851562 52.1875 L 395.023438 48.730469 L 395.195312 51.507812 L 395.367188 52.1875 L 395.539062 49.90625 L 395.710938 48.683594 L 395.882812 49.660156 L 396.054688 49.792969 L 396.226562 49.917969 L 396.398438 49.871094 L 396.574219 49.816406 L 396.746094 52.539062 L 396.917969 50.414062 L 397.089844 52.75 L 397.261719 49.796875 L 397.433594 51.316406 L 397.605469 49.535156 L 397.777344 52.9375 L 397.949219 51.136719 L 398.121094 52.945312 L 398.292969 50.757812 L 398.464844 50.203125 L 398.636719 49.546875 L 398.808594 52.71875 L 398.980469 50.859375 L 399.152344 51.207031 L 399.328125 51.71875 L 399.5 49.386719 L 399.671875 49.6875 L 399.84375 48.871094 L 400.015625 49.929688 L 400.1875 51.890625 L 400.359375 49.464844 L 400.53125 50.277344 L 400.703125 50.707031 L 400.875 49.542969 L 401.046875 50.507812 L 401.21875 51.671875 L 401.390625 51.65625 L 401.5625 50.9375 L 401.734375 52.574219 L 401.90625 51.617188 L 402.082031 49.402344 L 402.253906 50.140625 L 402.425781 50.945312 L 402.597656 51.269531 L 402.769531 51.25 L 402.941406 50.785156 L 403.113281 50.664062 L 403.285156 52.734375 L 403.457031 50.808594 L 403.628906 49.238281 L 403.800781 51.929688 L 403.972656 51.703125 L 404.144531 52.433594 L 404.316406 50.984375 L 404.488281 51.863281 L 404.660156 52.730469 L 404.835938 50.757812 L 405.007812 51.316406 L 405.179688 50.292969 L 405.351562 51.554688 L 405.523438 51.054688 L 405.695312 50.039062 L 405.867188 51.011719 L 406.039062 49.109375 L 406.210938 51.203125 L 406.382812 49.894531 L 406.554688 52.203125 L 406.726562 52.21875 L 406.898438 50.90625 L 407.070312 50.648438 L 407.242188 51.253906 L 407.414062 49.363281 L 407.589844 50.109375 L 407.761719 50.078125 L 407.933594 52.359375 L 408.105469 50.382812 L 408.277344 51.367188 L 408.449219 52.191406 L 408.621094 52.261719 L 408.792969 50.734375 L 408.964844 51.074219 L 409.136719 52.390625 L 409.308594 50.941406 L 409.480469 51.300781 L 409.652344 50.089844 L 409.824219 50.480469 L 409.996094 49.929688 L 410.167969 52.925781 L 410.34375 50.832031 L 410.515625 52.136719 L 410.6875 50.835938 L 410.859375 53.835938 L 411.03125 52.71875 L 411.203125 50.296875 L 411.375 50.550781 L 411.546875 51.539062 L 411.71875 51.234375 L 411.890625 49.90625 L 412.0625 51.167969 L 412.234375 52.609375 L 412.40625 52.734375 L 412.578125 50.230469 L 412.75 50.378906 L 412.921875 49.867188 L 413.097656 53.785156 L 413.269531 51.617188 L 413.441406 50.84375 L 413.613281 50.226562 L 413.785156 52.394531 L 413.957031 52.167969 L 414.128906 51.457031 L 414.300781 50.75 L 414.472656 51.417969 L 414.644531 50.09375 L 414.816406 49.367188 L 414.988281 51.984375 L 415.160156 50.027344 L 415.332031 50.242188 L 415.503906 50.734375 L 415.675781 49.820312 L 415.851562 51.003906 L 416.023438 51.34375 L 416.195312 51.28125 L 416.367188 49.882812 L 416.539062 49.710938 L 416.710938 50.300781 L 416.882812 49.835938 L 417.054688 51.296875 L 417.226562 52.8125 L 417.398438 52.078125 L 417.570312 51.988281 L 417.742188 51.757812 L 417.914062 51.847656 L 418.085938 51.824219 L 418.257812 52.253906 L 418.429688 52.429688 L 418.605469 51.433594 L 418.777344 50.355469 L 418.949219 49.011719 L 419.121094 50.777344 L 419.292969 51.722656 L 419.464844 50.402344 L 419.636719 50.292969 L 419.808594 50.308594 L 419.980469 51.480469 L 420.152344 52.839844 L 420.324219 51.480469 L 420.496094 49.007812 L 420.667969 52.015625 L 420.839844 49.625 L 421.011719 52.035156 L 421.183594 49.722656 L 421.359375 49.785156 L 421.53125 50.742188 L 421.703125 51.199219 L 421.875 49.800781 L 422.046875 51.058594 L 422.21875 50.554688 L 422.390625 52.003906 L 422.5625 51.855469 L 422.734375 53.140625 L 422.90625 50.675781 L 423.078125 52.542969 L 423.25 53.277344 L 423.421875 49.972656 L 423.59375 52.015625 L 423.765625 48.949219 L 423.9375 50.890625 L 424.109375 53.96875 L 424.285156 50.351562 L 424.457031 50.382812 L 424.628906 51.371094 L 424.800781 50.902344 L 424.972656 51.992188 L 425.144531 50.261719 L 425.316406 51.496094 L 425.488281 51.675781 L 425.660156 52.125 L 425.832031 52.667969 L 426.003906 49.535156 L 426.175781 49.804688 L 426.347656 52.0625 L 426.519531 50.679688 L 426.691406 50.195312 L 426.863281 48.828125 L 427.039062 50.605469 L 427.210938 50.722656 L 427.382812 50.644531 L 427.554688 51.585938 L 427.726562 51.902344 L 427.898438 50.386719 L 428.070312 50.105469 L 428.242188 52.046875 L 428.414062 51.984375 L 428.585938 50.40625 L 428.757812 51.039062 L 428.929688 50.28125 L 429.101562 51.871094 L 429.273438 50.632812 L 429.445312 50.480469 L 429.617188 52.863281 L 429.792969 52.960938 L 429.964844 49.152344 L 430.136719 52.882812 L 430.308594 50.730469 L 430.480469 51.078125 L 430.652344 51.042969 L 430.824219 51.628906 L 430.996094 52.128906 L 431.167969 53.875 L 431.339844 49.960938 L 431.511719 53.46875 L 431.683594 50.832031 L 431.855469 50.59375 L 432.027344 50.585938 L 432.199219 50.367188 L 432.371094 51.5625 L 432.546875 51.792969 L 432.71875 51.695312 L 432.890625 53.625 L 433.0625 50.90625 L 433.234375 48.355469 L 433.40625 47.003906 L 433.578125 52.40625 L 433.75 49.625 L 433.921875 50.238281 L 434.09375 51.679688 L 434.265625 48.0625 L 434.4375 51.03125 L 434.609375 49.566406 L 434.78125 51.503906 L 434.953125 52.019531 L 435.125 49.746094 L 435.300781 52.953125 L 435.472656 52.039062 L 435.644531 50.71875 L 435.816406 52.402344 L 435.988281 52.089844 L 436.160156 48.808594 L 436.332031 48.222656 L 436.503906 52.371094 L 436.675781 50.417969 L 436.847656 51.421875 L 437.019531 51.144531 L 437.191406 52.378906 L 437.363281 50.574219 L 437.535156 50.683594 L 437.707031 51.710938 L 437.878906 50.074219 L 438.054688 51.4375 L 438.226562 51.246094 L 438.398438 52.308594 L 438.570312 50.660156 L 438.742188 51.519531 L 438.914062 52.644531 L 439.085938 51.429688 L 439.257812 51.535156 L 439.429688 50.796875 L 439.601562 53.171875 L 439.773438 51.457031 L 439.945312 50.582031 L 440.117188 50.339844 L 440.289062 52.929688 L 440.460938 51.984375 L 440.632812 52.152344 L 440.808594 51.015625 L 440.980469 52.828125 L 441.152344 53.570312 L 441.324219 50.484375 L 441.496094 52.136719 L 441.667969 51.628906 L 441.839844 53.894531 L 442.011719 50.800781 L 442.183594 51.910156 L 442.355469 49.902344 L 442.527344 50.96875 L 442.699219 52.332031 L 442.871094 50.429688 L 443.042969 50.6875 L 443.214844 50.191406 L 443.386719 51.847656 L 443.5625 49.683594 L 443.734375 50.871094 L 443.90625 50.242188 L 444.078125 52.53125 L 444.25 51.652344 L 444.421875 51.558594 L 444.59375 52.453125 L 444.765625 52.050781 L 444.9375 50.910156 L 445.109375 50.664062 L 445.28125 51.476562 L 445.453125 51.898438 L 445.625 50.082031 L 445.796875 50.933594 L 445.96875 51.996094 L 446.140625 53.40625 L 446.316406 53.636719 L 446.488281 53.609375 L 446.660156 53.140625 L 446.832031 51.195312 L 447.003906 54.066406 L 447.175781 51.398438 L 447.347656 48.605469 L 447.519531 47.546875 L 447.691406 51.992188 L 447.863281 52.382812 L 448.035156 51.28125 L 448.207031 53.820312 L 448.378906 51.71875 L 448.550781 52.953125 L 448.722656 50.816406 L 448.894531 50.519531 L 449.070312 50.824219 L 449.242188 52.242188 L 449.414062 50.421875 L 449.585938 51.527344 L 449.757812 52.972656 L 449.929688 52.214844 L 450.101562 51.585938 L 450.273438 49.992188 L 450.445312 48.90625 L 450.617188 51.472656 L 450.789062 50.550781 L 450.960938 51.667969 L 451.132812 52.933594 L 451.304688 52.058594 L 451.476562 52.632812 L 451.648438 51.90625 L 451.820312 51.507812 L 451.996094 50.464844 L 452.167969 51.582031 L 452.339844 51.792969 L 452.511719 51.777344 L 452.683594 50.554688 L 452.855469 51.976562 L 453.027344 50.3125 L 453.199219 52.90625 L 453.371094 51.796875 L 453.542969 50.949219 L 453.714844 51.578125 L 453.886719 52.179688 L 454.058594 49.09375 L 454.230469 50.214844 L 454.402344 50.636719 L 454.574219 51.835938 L 454.75 49.839844 L 454.921875 49.164062 L 455.09375 47.699219 L 455.265625 53.09375 L 455.4375 54.042969 L 455.609375 54.269531 L 455.78125 50.0625 L 455.953125 50.757812 L 456.125 53.910156 L 456.296875 49.871094 L 456.46875 48.007812 L 456.640625 51.273438 L 456.8125 50.101562 L 456.984375 51.734375 L 457.15625 52.070312 L 457.328125 52.167969 L 457.503906 49.902344 "/>
</g>
<g clip-path="url(#clip-5-b90de5dd)">
<path fill="none" stroke-width="1.5" stroke-linecap="butt" stroke-linejoin="miter" stroke="rgb(83.529413%, 36.862746%, 0%)" stroke-opacity="1" stroke-miterlimit="2" d="M 457.675781 16.398438 L 457.847656 19.539062 L 458.019531 21.671875 L 458.191406 22.394531 L 458.363281 27.480469 L 458.535156 30.570312 L 458.707031 33.734375 L 458.878906 36.0625 L 459.050781 38.140625 L 459.222656 40.199219 L 459.394531 41.707031 L 459.566406 41.46875 L 459.738281 42.574219 L 459.910156 43.503906 L 460.082031 44.917969 L 460.257812 44.796875 L 460.429688 46.96875 L 460.601562 46.316406 L 460.773438 43.859375 L 460.945312 47.191406 L 461.117188 48.773438 L 461.289062 46.726562 L 461.460938 45.9375 L 461.632812 48.710938 L 461.804688 50.117188 L 461.976562 50.054688 L 462.148438 47.917969 L 462.320312 47.019531 L 462.492188 47.695312 L 462.664062 50.253906 L 462.835938 49.589844 L 463.011719 45.859375 L 463.183594 48.332031 L 463.355469 48.835938 L 463.527344 48.332031 L 463.699219 48.242188 L 463.871094 47.101562 L 464.042969 48.175781 L 464.214844 50.109375 L 464.386719 48.640625 L 464.558594 48.285156 L 464.730469 48.835938 L 464.902344 48.640625 L 465.074219 49.257812 L 465.246094 49.429688 L 465.417969 48.867188 L 465.589844 47.914062 L 465.765625 51.007812 L 465.9375 51.847656 L 466.109375 50.300781 L 466.28125 49.480469 L 466.453125 48.460938 L 466.625 49.234375 L 466.796875 49.464844 L 466.96875 49.558594 L 467.140625 49.523438 L 467.3125 50.507812 L 467.484375 48.742188 L 467.65625 49.347656 L 467.828125 49.167969 L 468 49.523438 L 468.171875 51.128906 L 468.34375 48.621094 L 468.519531 49.371094 L 468.691406 52.558594 L 468.863281 50.296875 L 469.035156 49.507812 L 469.207031 47.460938 L 469.378906 49.34375 L 469.550781 50.339844 L 469.722656 49.578125 L 469.894531 48.601562 L 470.066406 51.214844 L 470.238281 49.507812 L 470.410156 48.984375 L 470.582031 49.46875 L 470.753906 50.757812 L 470.925781 48.792969 L 471.097656 47.980469 L 471.273438 48.023438 L 471.445312 51.933594 L 471.617188 51.542969 L 471.789062 50.734375 L 471.960938 50.375 L 472.132812 50.09375 L 472.304688 48.167969 L 472.476562 50.15625 L 472.648438 48.191406 L 472.820312 50.117188 L 472.992188 49.769531 L 473.164062 50.769531 L 473.335938 51.582031 L 473.507812 49.402344 L 473.679688 49.921875 L 473.851562 50.777344 L 474.027344 50.953125 L 474.199219 49.035156 L 474.371094 49.328125 L 474.542969 50.933594 L 474.714844 48.964844 L 474.886719 49.855469 L 475.058594 51.992188 L 475.230469 50.914062 L 475.402344 50.433594 L 475.574219 50.398438 L 475.746094 51.691406 L 475.917969 49.988281 L 476.089844 50.796875 L 476.261719 50.804688 L 476.433594 52.351562 L 476.605469 50.554688 L 476.78125 50.984375 L 476.953125 51.878906 L 477.125 51.875 L 477.296875 52.9375 L 477.46875 50.136719 L 477.640625 47.835938 L 477.8125 50.5 L 477.984375 50.9375 L 478.15625 49.613281 L 478.328125 48.71875 L 478.5 48.570312 L 478.671875 48.109375 L 478.84375 50.738281 L 479.015625 51.902344 L 479.1875 50.765625 L 479.359375 52.398438 L 479.53125 51.328125 L 479.707031 49.808594 L 479.878906 48.601562 L 480.050781 49.132812 L 480.222656 48.808594 L 480.394531 51.15625 L 480.566406 52.507812 L 480.738281 50.191406 L 480.910156 49.085938 L 481.082031 50.375 L 481.253906 49.582031 L 481.425781 49.902344 L 481.597656 50.023438 L 481.769531 48.269531 L 481.941406 49.585938 L 482.113281 50.769531 L 482.285156 50.109375 L 482.460938 50.113281 L 482.632812 51.609375 L 482.804688 51.765625 L 482.976562 49.785156 L 483.148438 50.792969 L 483.320312 51.582031 L 483.492188 52.136719 L 483.664062 50.472656 L 483.835938 50.253906 L 484.007812 50.574219 L 484.179688 48.730469 L 484.351562 48.960938 L 484.523438 50.171875 L 484.695312 49.617188 L 484.867188 49.832031 L 485.039062 51.761719 L 485.214844 50.476562 L 485.386719 51.722656 L 485.558594 48.753906 L 485.730469 50.617188 L 485.902344 50.144531 L 486.074219 50.550781 L 486.246094 50.960938 L 486.417969 50.152344 L 486.589844 50.402344 L 486.761719 51.492188 L 486.933594 49.152344 L 487.105469 49.90625 L 487.277344 51.890625 L 487.449219 51.066406 L 487.621094 51.417969 L 487.792969 52.726562 L 487.96875 50.78125 L 488.140625 50.035156 L 488.3125 50.769531 L 488.484375 49.503906 L 488.65625 49.628906 L 488.828125 48.929688 L 489 49.984375 L 489.171875 49.988281 L 489.34375 47.617188 L 489.515625 51.460938 L 489.6875 50.496094 L 489.859375 50.679688 L 490.03125 48.789062 L 490.203125 49.5 L 490.375 50.617188 L 490.546875 48.777344 L 490.722656 48.984375 L 490.894531 49.769531 L 491.066406 49.742188 L 491.238281 50.132812 L 491.410156 48.507812 L 491.582031 50.140625 L 491.753906 48.960938 L 491.925781 49.933594 L 492.097656 50.433594 L 492.269531 51.382812 L 492.441406 48.679688 L 492.613281 50.15625 L 492.785156 50.398438 L 492.957031 51.769531 L 493.128906 49.75 L 493.300781 51.484375 L 493.476562 49.691406 L 493.648438 49.90625 L 493.820312 49.605469 L 493.992188 50.144531 L 494.164062 50.238281 L 494.335938 51.179688 L 494.507812 51.417969 L 494.679688 51.308594 L 494.851562 50 L 495.023438 49.492188 L 495.195312 51.328125 L 495.367188 52.015625 L 495.539062 53.023438 L 495.710938 49.769531 L 495.882812 52.253906 L 496.054688 51.242188 L 496.230469 49.964844 L 496.402344 49.882812 L 496.574219 51.339844 L 496.746094 51.808594 L 496.917969 51.917969 L 497.089844 50.683594 L 497.261719 50.054688 L 497.433594 50.976562 L 497.605469 52.710938 L 497.777344 52.78125 L 497.949219 50.335938 L 498.121094 51.410156 L 498.292969 51.558594 L 498.464844 50.523438 L 498.636719 50.394531 L 498.808594 50.371094 L 498.984375 50.210938 L 499.15625 51.949219 L 499.328125 53.207031 L 499.5 51.011719 L 499.671875 49.296875 L 499.84375 50.902344 L 500.015625 49.761719 L 500.1875 50.058594 L 500.359375 50.621094 L 500.53125 48.996094 L 500.703125 50.722656 L 500.875 51.042969 L 501.046875 52.886719 L 501.21875 50.347656 L 501.390625 51.296875 L 501.5625 47.210938 L 501.738281 51.132812 L 501.910156 49.398438 L 502.082031 50.984375 L 502.253906 51.925781 L 502.425781 50.511719 L 502.597656 48.796875 L 502.769531 48.609375 L 502.941406 50.5 L 503.113281 48.640625 L 503.285156 53.597656 L 503.457031 50.699219 L 503.628906 48.460938 L 503.800781 49.523438 L 503.972656 52.628906 L 504.144531 51.308594 L 504.316406 52.003906 L 504.492188 49.164062 L 504.664062 50.191406 L 504.835938 49.703125 L 505.007812 50.972656 L 505.179688 50.6875 L 505.351562 49.964844 L 505.523438 50.457031 L 505.695312 48.574219 L 505.867188 48.5625 L 506.039062 49.84375 L 506.210938 50.242188 L 506.382812 50.445312 L 506.554688 49.28125 L 506.726562 51.179688 L 506.898438 48.230469 L 507.070312 48.097656 L 507.242188 50.542969 L 507.417969 49.300781 L 507.589844 52.039062 L 507.761719 52.609375 L 507.933594 48.101562 L 508.105469 52.996094 L 508.277344 52.511719 L 508.449219 51.648438 L 508.621094 50.050781 L 508.792969 50.082031 L 508.964844 49.972656 L 509.136719 50.308594 L 509.308594 50.839844 L 509.480469 48.855469 L 509.652344 49.632812 L 509.824219 48.941406 L 509.996094 50.34375 L 510.171875 53.183594 L 510.34375 50.585938 L 510.515625 52.628906 L 510.6875 50.746094 L 510.859375 50.960938 L 511.03125 52.320312 L 511.203125 51.613281 L 511.375 51.941406 L 511.546875 49.851562 L 511.71875 51.582031 L 511.890625 50.082031 L 512.0625 51.324219 L 512.234375 52.125 L 512.40625 50.429688 L 512.578125 50.523438 L 512.75 50.355469 L 512.925781 51.621094 L 513.097656 49.808594 L 513.269531 51.785156 L 513.441406 52.386719 L 513.613281 49.28125 L 513.785156 49.90625 L 513.957031 50.484375 L 514.128906 52.378906 L 514.300781 50.90625 L 514.472656 52.339844 L 514.644531 52.136719 L 514.816406 53.527344 L 514.988281 51.746094 L 515.160156 52.109375 L 515.332031 50.425781 L 515.503906 49.703125 L 515.679688 52.511719 L 515.851562 50.8125 L 516.023438 49.636719 L 516.195312 50.554688 L 516.367188 51.261719 L 516.539062 50.441406 L 516.710938 49.742188 L 516.882812 51.496094 L 517.054688 49.90625 L 517.226562 50.136719 L 517.398438 48.058594 L 517.570312 49.875 L 517.742188 51.324219 L 517.914062 52.285156 L 518.085938 49.394531 L 518.257812 47.1875 L 518.433594 51.320312 L 518.605469 51.199219 L 518.777344 51.132812 L 518.949219 51.5625 L 519.121094 49.484375 L 519.292969 52.839844 L 519.464844 51.34375 L 519.636719 53.636719 L 519.808594 50.234375 L 519.980469 50.589844 L 520.152344 52.425781 L 520.324219 51.050781 L 520.496094 52.480469 L 520.667969 49.441406 L 520.839844 50.867188 L 521.011719 49.546875 L 521.1875 48.046875 L 521.359375 50.34375 L 521.53125 52.609375 L 521.703125 52.105469 L 521.875 49.226562 L 522.046875 51.195312 L 522.21875 49.386719 L 522.390625 49.707031 L 522.5625 50.929688 L 522.734375 50.171875 L 522.90625 49.960938 L 523.078125 50.792969 L 523.25 50.640625 L 523.421875 51.824219 L 523.59375 50.585938 L 523.765625 48.953125 L 523.941406 49.890625 L 524.113281 51.214844 L 524.285156 47.890625 L 524.457031 47.644531 L 524.628906 51.5625 L 524.800781 50.058594 L 524.972656 52.273438 L 525.144531 53.03125 L 525.316406 49.324219 L 525.488281 50.675781 L 525.660156 49.714844 L 525.832031 50.203125 L 526.003906 50.363281 L 526.175781 51.816406 L 526.347656 52.292969 L 526.519531 50.351562 L 526.695312 47.652344 L 526.867188 49.4375 L 527.039062 50.304688 L 527.210938 49.886719 L 527.382812 50.085938 L 527.554688 50.609375 L 527.726562 52.378906 L 527.898438 51.835938 L 528.070312 49.0625 L 528.242188 51.253906 L 528.414062 51.019531 L 528.585938 50.332031 L 528.757812 52.164062 L 528.929688 51.679688 L 529.101562 51.984375 L 529.273438 49.914062 L 529.449219 52.195312 L 529.621094 51.445312 L 529.792969 49.945312 L 529.964844 50.480469 L 530.136719 49.75 L 530.308594 51.507812 L 530.480469 51.007812 L 530.652344 52.835938 L 530.824219 51 L 530.996094 53.378906 L 531.167969 52.066406 L 531.339844 50.902344 L 531.511719 53.261719 L 531.683594 51.28125 L 531.855469 52.871094 L 532.027344 50.851562 L 532.203125 49.234375 L 532.375 50.496094 L 532.546875 52.738281 L 532.71875 49.855469 L 532.890625 53.359375 L 533.0625 52.457031 L 533.234375 51.597656 L 533.40625 51.078125 L 533.578125 51.257812 L 533.75 49.617188 L 533.921875 52.382812 L 534.09375 51.753906 L 534.265625 51.320312 L 534.4375 53.472656 L 534.609375 51.855469 L 534.78125 51.257812 L 534.953125 53.207031 L 535.128906 52.960938 L 535.300781 51.730469 L 535.472656 51.199219 L 535.644531 51.472656 L 535.816406 49 L 535.988281 49.765625 L 536.160156 53.144531 L 536.332031 51.132812 L 536.503906 52.402344 L 536.675781 51.828125 L 536.847656 50.195312 L 537.019531 52.027344 L 537.191406 52.113281 L 537.363281 51.78125 L 537.535156 51.949219 L 537.707031 51.707031 L 537.882812 54.207031 L 538.054688 50.386719 L 538.226562 52.074219 L 538.398438 54.058594 L 538.570312 48.898438 L 538.742188 51.382812 L 538.914062 50.472656 L 539.085938 49.902344 L 539.257812 49.976562 L 539.429688 51.25 L 539.601562 50.265625 L 539.773438 50.433594 L 539.945312 50.585938 L 540.117188 49.773438 L 540.289062 53.492188 L 540.460938 49.554688 L 540.636719 50.984375 L 540.808594 50.742188 L 540.980469 51.460938 L 541.152344 49.675781 L 541.324219 50.546875 L 541.496094 49.554688 L 541.667969 53.421875 L 541.839844 50.859375 L 542.011719 50.832031 L 542.183594 50.246094 L 542.355469 49.460938 L 542.527344 50.289062 L 542.699219 52.535156 L 542.871094 50.261719 L 543.042969 54.386719 L 543.214844 50.890625 L 543.390625 51.449219 L 543.5625 53.199219 L 543.734375 51.417969 L 543.90625 54.621094 L 544.078125 52.765625 L 544.25 52.957031 L 544.421875 54.753906 L 544.59375 52.796875 L 544.765625 53.171875 L 544.9375 51.652344 L 545.109375 54.269531 L 545.28125 51.925781 L 545.453125 51.082031 L 545.625 51.769531 L 545.796875 51.039062 L 545.96875 47.964844 L 546.144531 51.621094 L 546.316406 52.042969 L 546.488281 50.820312 L 546.660156 53.144531 L 546.832031 49.980469 L 547.003906 49.347656 L 547.175781 50.976562 L 547.347656 49.855469 L 547.519531 53.433594 L 547.691406 50.953125 L 547.863281 50.503906 L 548.035156 54.949219 L 548.207031 51.734375 L 548.378906 51.25 L 548.550781 52.34375 L 548.722656 52.273438 L 548.898438 50.449219 L 549.070312 54.773438 L 549.242188 52.707031 L 549.414062 49.902344 L 549.585938 52.414062 L 549.757812 51.1875 L 549.929688 50.9375 L 550.101562 51.71875 L 550.273438 50.761719 L 550.445312 49.011719 L 550.617188 51.628906 L 550.789062 53.40625 L 550.960938 50.871094 L 551.132812 52.085938 L 551.304688 50.1875 L 551.476562 49.664062 L 551.652344 52.167969 L 551.824219 49.6875 L 551.996094 51.636719 L 552.167969 53.328125 L 552.339844 52.246094 L 552.511719 50.921875 L 552.683594 49.671875 L 552.855469 49.800781 L 553.027344 50.992188 L 553.199219 48.664062 L 553.371094 50.992188 L 553.542969 51.867188 L 553.714844 52.179688 L 553.886719 49.261719 L 554.058594 51.984375 L 554.230469 51.660156 L 554.40625 51.316406 L 554.578125 52.328125 L 554.75 51.3125 L 554.921875 51.242188 L 555.09375 49.476562 L 555.265625 50.683594 L 555.4375 51.636719 L 555.609375 49.761719 L 555.78125 49.476562 L 555.953125 49.6875 L 556.125 50.101562 L 556.296875 49.503906 L 556.46875 52.007812 L 556.640625 50.488281 L 556.8125 49.210938 L 556.984375 49.226562 L 557.160156 49.984375 L 557.332031 50.117188 L 557.503906 50.3125 L 557.675781 49.503906 L 557.847656 50.9375 L 558.019531 52.882812 L 558.191406 53.011719 L 558.363281 49.539062 L 558.535156 49.484375 L 558.707031 50.242188 L 558.878906 49.644531 L 559.050781 50.710938 L 559.222656 51.890625 L 559.394531 51.101562 L 559.566406 53.492188 L 559.738281 52.167969 L 559.914062 51.96875 L 560.085938 50.113281 L 560.257812 51.859375 L 560.429688 50.023438 L 560.601562 48.648438 L 560.773438 52.765625 "/>
</g>
<g clip-path="url(#clip-6-b90de5dd)">
<path fill="none" stroke-width="1.5" stroke-linecap="butt" stroke-linejoin="miter" stroke="rgb(100%, 0%, 0%)" stroke-opacity="0.4" stroke-dasharray="4.5 4.5" stroke-miterlimit="1.154701" d="M 73 51.386719 L 584 51.386719 "/>
</g>
<path fill-rule="nonzero" fill="rgb(100%, 100%, 100%)" fill-opacity="1" stroke-width="1" stroke-linecap="butt" stroke-linejoin="miter" stroke="rgb(0%, 0%, 0%)" stroke-opacity="1" stroke-miterlimit="2" d="M 418 54 L 578 54 L 578 22 L 418 22 Z M 418 54 "/>
<path fill="none" stroke-width="1" stroke-linecap="butt" stroke-linejoin="miter" stroke="rgb(0%, 0%, 0%)" stroke-opacity="1" stroke-miterlimit="1.154701" d="M 96.054688 391.5 L 96.054688 396.5 "/>
<path fill="none" stroke-width="1" stroke-linecap="butt" stroke-linejoin="miter" stroke="rgb(0%, 0%, 0%)" stroke-opacity="1" stroke-miterlimit="1.154701" d="M 268.171875 391.5 L 268.171875 396.5 "/>
<path fill="none" stroke-width="1" stroke-linecap="butt" stroke-linejoin="miter" stroke="rgb(0%, 0%, 0%)" stroke-opacity="1" stroke-miterlimit="1.154701" d="M 440.289062 391.5 L 440.289062 396.5 "/>
<path fill="none" stroke-width="1" stroke-linecap="butt" stroke-linejoin="miter" stroke="rgb(0%, 0%, 0%)" stroke-opacity="1" stroke-miterlimit="1.154701" d="M 72.5 391 L 67.5 391 "/>
<path fill="none" stroke-width="1" stroke-linecap="butt" stroke-linejoin="miter" stroke="rgb(0%, 0%, 0%)" stroke-opacity="1" stroke-miterlimit="1.154701" d="M 72.5 266 L 67.5 266 "/>
<path fill="none" stroke-width="1" stroke-linecap="butt" stroke-linejoin="miter" stroke="rgb(0%, 0%, 0%)" stroke-opacity="1" stroke-miterlimit="1.154701" d="M 72.5 141 L 67.5 141 "/>
<path fill="none" stroke-width="1" stroke-linecap="butt" stroke-linejoin="miter" stroke="rgb(0%, 0%, 0%)" stroke-opacity="1" stroke-miterlimit="1.154701" d="M 72.5 16 L 67.5 16 "/>
<path fill="none" stroke-width="1.5" stroke-linecap="butt" stroke-linejoin="miter" stroke="rgb(100%, 0%, 0%)" stroke-opacity="0.4" stroke-dasharray="4.5 4.5" stroke-miterlimit="2" d="M 424.214844 38 L 444.214844 38 "/>
<g fill="rgb(0%, 0%, 0%)" fill-opacity="1">
<use xlink:href="#glyph-0-12-b90de5dd" x="449.215049" y="43.10299"/>
<use xlink:href="#glyph-0-5-b90de5dd" x="457.76905" y="43.10299"/>
<use xlink:href="#glyph-0-7-b90de5dd" x="460.877048" y="43.10299"/>
<use xlink:href="#glyph-0-4-b90de5dd" x="468.661049" y="43.10299"/>
<use xlink:href="#glyph-0-13-b90de5dd" x="476.445049" y="43.10299"/>
<use xlink:href="#glyph-0-14-b90de5dd" x="479.553049" y="43.10299"/>
<use xlink:href="#glyph-0-15-b90de5dd" x="483.44505" y="43.10299"/>
<use xlink:href="#glyph-0-6-b90de5dd" x="491.22905" y="43.10299"/>
<use xlink:href="#glyph-0-8-b90de5dd" x="499.013051" y="43.10299"/>
<use xlink:href="#glyph-0-8-b90de5dd" x="506.013051" y="43.10299"/>
<use xlink:href="#glyph-0-14-b90de5dd" x="513.013051" y="43.10299"/>
<use xlink:href="#glyph-0-16-b90de5dd" x="516.905053" y="43.10299"/>
<use xlink:href="#glyph-0-14-b90de5dd" x="525.081056" y="43.10299"/>
<use xlink:href="#glyph-0-9-b90de5dd" x="528.973054" y="43.10299"/>
<use xlink:href="#glyph-0-17-b90de5dd" x="536.757051" y="43.10299"/>
<use xlink:href="#glyph-0-18-b90de5dd" x="540.649049" y="43.10299"/>
<use xlink:href="#glyph-0-11-b90de5dd" x="548.433046" y="43.10299"/>
<use xlink:href="#glyph-0-10-b90de5dd" x="556.217043" y="43.10299"/>
<use xlink:href="#glyph-0-10-b90de5dd" x="564.00104" y="43.10299"/>
</g>
<path fill="none" stroke-width="1" stroke-linecap="butt" stroke-linejoin="miter" stroke="rgb(0%, 0%, 0%)" stroke-opacity="1" stroke-miterlimit="1.154701" d="M 72.5 391 L 584.5 391 "/>
<path fill="none" stroke-width="1" stroke-linecap="butt" stroke-linejoin="miter" stroke="rgb(0%, 0%, 0%)" stroke-opacity="1" stroke-miterlimit="1.154701" d="M 73 391.5 L 73 15.5 "/>
<path fill="none" stroke-width="1" stroke-linecap="butt" stroke-linejoin="miter" stroke="rgb(0%, 0%, 0%)" stroke-opacity="1" stroke-miterlimit="1.154701" d="M 72.5 16 L 584.5 16 "/>
<path fill="none" stroke-width="1" stroke-linecap="butt" stroke-linejoin="miter" stroke="rgb(0%, 0%, 0%)" stroke-opacity="1" stroke-miterlimit="1.154701" d="M 584 391.5 L 584 15.5 "/>
</svg>
